<?xml version="1.0" standalone="no"?>
<!DOCTYPE svg PUBLIC "-//W3C//DTD SVG 1.1//EN" "http://www.w3.org/Graphics/SVG/1.1/DTD/svg11.dtd" >
<svg xmlns="http://www.w3.org/2000/svg">
<metadata>Generated by IcoMoon</metadata>
<defs>
<font id="icomoon" horiz-adv-x="1024">
<font-face units-per-em="1024" ascent="960" descent="-64" />
<missing-glyph horiz-adv-x="1024" />
<glyph unicode="&#x20;" horiz-adv-x="512" d="" />
<glyph unicode="&#xe600;" glyph-name="chat" d="M875.52 550.827h-727.040c-30.72 0-51.2-25.6-51.2-51.2v-465.92c0-30.72 25.6-51.2 51.2-51.2h256l209.92-158.72v158.72h261.12c30.72 0 51.2 25.6 51.2 51.2v465.92c5.12 25.6-20.48 51.2-51.2 51.2z" />
<glyph unicode="&#xe601;" glyph-name="bar-graph" d="M92.16 493.227h225.28v-537.6h-225.28v537.6zM404.48 186.027h225.28v-230.4h-225.28v230.4zM701.44 713.387h225.28v-757.76h-225.28v757.76z" />
<glyph unicode="&#xe602;" glyph-name="bubble-stream" d="M727.040 246.187c0-104.625-84.815-189.44-189.44-189.44s-189.44 84.815-189.44 189.44c0 104.625 84.815 189.44 189.44 189.44s189.44-84.815 189.44-189.44zM952.32 246.187c0-53.726-43.554-97.28-97.28-97.28s-97.28 43.554-97.28 97.28c0 53.726 43.554 97.28 97.28 97.28s97.28-43.554 97.28-97.28zM312.32 246.187c0-53.726-43.554-97.28-97.28-97.28s-97.28 43.554-97.28 97.28c0 53.726 43.554 97.28 97.28 97.28s97.28-43.554 97.28-97.28z" />
<glyph unicode="&#xe603;" glyph-name="calendar" d="M97.28 653.227v-737.28h834.56v737.28h-834.56zM834.56 8.107h-645.12v552.96h645.12v-552.96zM327.68 745.387h92.16v-276.48h-92.16v276.48zM604.16 745.387h92.16v-276.48h-92.16v276.48z" />
<glyph unicode="&#xe604;" glyph-name="compare" d="M102.4 698.027v-742.4h245.76v742.4h-245.76zM250.88 6.827h-51.2v245.76h51.2v-245.76zM399.36 549.547v-593.92h245.76v593.92h-245.76zM593.92 6.827h-148.48v46.080c51.2 25.6 35.84 30.72 56.32 56.32 35.84 40.96 40.96 46.080 40.96 71.68v5.12c0 15.36-10.24 15.36-30.72 15.36s-46.080-5.12-61.44-5.12l-5.12 46.080c25.6 5.12 51.2 10.24 71.68 10.24 56.32 0 81.92-20.48 81.92-61.44 0 0 0-10.24 0-10.24 0-35.84 0-40.96-35.84-81.92-20.48-20.48-30.72-46.080-40.96-46.080h71.68v-46.080zM691.2 401.067v-445.44h245.76v445.44h-245.76zM890.88 68.267c0-35.84-15.36-61.44-81.92-61.44-20.48 0-40.96 0-61.44 10.24l5.12 40.96c20.48-5.12 30.72-5.12 51.2-5.12 25.6 0 30.72 5.12 30.72 20.48v15.36c0 15.36-5.12 20.48-25.6 20.48h-71.68v51.2h66.56c25.6 0 35.84 5.12 35.84 20.48v15.36c0 15.36-10.24 20.48-30.72 20.48-15.36 0-35.84 0-51.2-5.12l-5.12 40.96c20.48 5.12 40.96 5.12 61.44 5.12 61.44 0 76.8-20.48 76.8-56.32v-15.36c0-20.48-10.24-40.96-25.6-51.2 20.48-10.24 25.6-20.48 25.6-46.080v-20.48z" />
<glyph unicode="&#xe605;" glyph-name="dashboard" horiz-adv-x="917" d="M75.669 237.727c-20.192 0-40.384-5.047-55.527-20.192s-20.192-35.336-20.192-55.527c0-20.192 5.047-40.384 20.192-55.527s35.336-20.192 55.527-20.192c20.192 0 40.384 5.047 55.527 20.192s20.192 30.284 20.192 55.527c0 20.192-5.047 40.384-20.192 55.527-15.144 10.093-35.336 20.192-55.527 20.192zM176.626 495.172c-20.192 0-40.384-5.047-55.527-20.192s-20.192-30.284-20.192-55.527c0-20.192 5.047-40.384 20.192-55.527s35.336-20.192 55.527-20.192c20.192 0 40.384 5.047 55.527 20.192s20.192 30.284 20.192 55.527c0 20.192-5.047 40.384-20.192 55.527-15.144 10.093-30.284 20.192-55.527 20.192zM545.13 35.813c0 0 0 5.047-5.047 5.047l-206.966 206.966c-5.047 5.047-10.093 5.047-20.192 0-5.047-5.047-10.093-10.093-5.047-15.144l95.913-282.684c0 0 0-5.047 0-5.047 15.144-20.192 40.384-30.284 70.666-30.284 10.093 0 20.192 0 35.336 5.047 0 0 5.047 0 5.047 5.047 35.336 30.284 45.431 65.623 30.284 111.054v0zM459.314 469.933c20.192 0 40.384 5.047 55.527 20.192s20.192 35.336 20.192 55.527c0 20.192-5.047 40.384-20.192 55.527s-35.336 20.192-55.527 20.192c-20.192 0-40.384-5.047-55.527-20.192s-20.192-30.284-20.192-55.527c0-20.192 5.047-40.384 20.192-55.527 15.144-10.093 35.336-20.192 55.527-20.192zM807.622 419.458c0 20.192-5.047 40.384-20.192 55.527s-35.336 20.192-55.527 20.192c-20.192 0-40.384-5.047-55.527-20.192s-20.192-30.284-20.192-55.527c0-20.192 5.047-40.384 20.192-55.527s30.284-20.192 55.527-20.192c20.192 0 40.384 5.047 55.527 20.192s20.192 35.336 20.192 55.527zM883.341 217.536c-15.144 15.144-35.336 20.192-55.527 20.192s-40.384-5.047-55.527-20.192c-15.144-15.144-20.192-35.336-20.192-55.527s5.047-40.384 20.192-55.527c15.144-15.144 30.284-20.192 55.527-20.192 20.192 0 40.384 5.047 55.527 20.192s20.192 30.284 20.192 55.527c0 20.192-5.047 40.384-20.192 55.527z" />
<glyph unicode="&#xe606;" glyph-name="download" d="M931.84 260.267v0c-5.12 0-5.12 0 0 0h-117.76v-179.2h-599.040v179.2h-122.88v-25.6c0 0 0 0 0 0v-215.040c0-35.84 25.6-61.44 61.44-61.44h716.8c35.84 0 61.44 25.6 61.44 61.44v240.64zM634.88 495.787v240.64h-240.64v-240.64h-117.76l240.64-302.080 235.52 302.080z" />
<glyph unicode="&#xe607;" glyph-name="generate-report" d="M312.32 451.627h307.2v-97.28h-307.2v97.28zM312.32 246.827h307.2v-97.28h-307.2v97.28zM762.88 441.387c-15.36 0-30.72 0-40.96 5.12v-409.6h-506.88v716.8h327.68c15.36 40.96 40.96 76.8 76.8 102.4h-419.84c-51.2 0-92.16-40.96-92.16-92.16v-742.4c0-51.2 40.96-92.16 92.16-92.16h537.6c51.2 0 92.16 40.96 92.16 92.16v430.080c-20.48-5.12-40.96-10.24-66.56-10.24zM537.6 656.427h-225.28v-97.28h250.88c-15.36 30.72-25.6 61.44-25.6 97.28zM757.76 861.227c-102.4 0-189.44-81.92-189.44-189.44 0-102.4 81.92-189.44 189.44-189.44s189.44 81.92 189.44 189.44c-5.12 107.52-87.040 189.44-189.44 189.44zM860.16 651.307h-76.8v-81.92h-51.2v81.92h-76.8v51.2h76.8v76.8h51.2v-81.92h76.8v-46.080z" />
<glyph unicode="&#xe608;" glyph-name="links" d="M655.36 756.907l-143.36-143.36c0 0 0 0 0 0-15.36-15.36-15.36-35.84 0-51.2s35.84-15.36 51.2 0v0l128 133.12c20.48 20.48 46.080 20.48 66.56 0l71.68-76.8c20.48-20.48 20.48-46.080 0-66.56l-235.52-235.52c-20.48-20.48-46.080-20.48-66.56 0l-35.84 35.84c-15.36 15.36-35.84 15.36-51.2 0s-15.36-35.84 0-51.2v0l56.32-56.32c40.96-40.96 102.4-35.84 138.24 0l266.24 266.24c40.96 40.96 35.84 102.4 0 138.24l-102.4 102.4c-40.96 40.96-102.4 40.96-143.36 5.12zM368.64-11.093l143.36 143.36c0 0 0 0 0 0 15.36 15.36 15.36 35.84 0 51.2s-35.84 15.36-51.2 0v0l-133.12-128c-20.48-20.48-51.2-20.48-66.56 0l-66.56 66.56c-20.48 20.48-20.48 51.2 0 66.56l235.52 235.52c20.48 20.48 51.2 20.48 66.56 0l35.84-35.84c15.36-15.36 35.84-15.36 51.2 0s15.36 35.84 0 51.2v0l-56.32 56.32c-40.96 40.96-102.4 40.96-138.24 0l-266.24-266.24c-40.96-40.96-40.96-102.4 0-138.24l102.4-102.4c40.96-40.96 102.4-40.96 143.36 0z" />
<glyph unicode="&#xe609;" glyph-name="map" horiz-adv-x="768" d="M732.698 444.075c-21.177 46.589-46.589 84.703-80.468 122.822-33.884 33.884-76.232 63.528-122.822 80.468-46.589 21.177-97.41 29.648-148.235 29.648s-101.645-8.471-148.235-29.648c-46.589-21.177-84.703-46.589-122.822-80.468-33.884-33.884-63.528-76.232-80.468-122.822-21.177-46.589-29.648-97.41-29.648-148.235s8.471-101.645 29.648-148.235c21.177-46.589 46.589-88.939 80.468-122.822s76.232-63.528 122.822-80.468c46.589-21.177 97.41-29.648 148.235-29.648s101.645 8.471 148.235 29.648c46.589 21.177 84.703 46.589 122.822 80.468 33.884 33.884 63.528 76.232 80.468 122.822 21.177 46.589 29.648 97.41 29.648 148.235s-8.471 101.645-29.648 148.235zM470.115 325.488c0-4.235 0-4.235 0 0v-12.706c0-4.235 0-8.471 0-8.471 0-25.413-8.471-50.824-29.648-71.997s-42.355-29.648-71.997-29.648c-4.235 0-8.471 0-12.706 0h-8.471c0 0-4.235 0-4.235 0l-199.055-131.293c-8.471-4.235-16.942 4.235-12.706 12.706l131.293 199.055c0 0 0 0 0 4.235v8.471c0 4.235 0 8.471 0 12.706 0 25.413 8.471 50.824 29.648 71.997s42.355 29.648 71.997 29.648c4.235 0 4.235 0 8.471 0h8.471c0 0 4.235 0 4.235 0l203.29 139.764c8.471 4.235 16.942-4.235 12.706-12.706l-131.293-211.761z" />
<glyph unicode="&#xe60a;" glyph-name="reports" d="M875.52 792.107h-727.040c-25.6 0-46.080-20.48-46.080-46.080v-778.24c0-25.6 20.48-46.080 46.080-46.080h721.92c25.6 0 46.080 20.48 46.080 46.080v778.24c5.12 25.6-15.36 46.080-40.96 46.080zM680.96 18.987h-486.4v675.84h486.4v-675.84zM824.32 18.987h-46.080v675.84h46.080v-675.84zM291.84 597.547h291.84v-92.16h-291.84v92.16zM291.84 402.987h291.84v-92.16h-291.84v92.16zM291.84 208.427h291.84v-92.16h-291.84v92.16z" />
<glyph unicode="&#xe60b;" glyph-name="search" horiz-adv-x="917" d="M888.245-72.549l-232.39 227.224h-20.656c20.656 25.821 36.15 51.643 46.477 77.464 20.656 41.314 30.985 87.791 30.985 139.433s-10.329 98.12-25.821 139.433c-20.656 41.314-46.477 82.627-77.464 113.612s-72.298 56.806-113.612 72.298c-41.314 15.492-87.791 25.821-134.27 25.821s-92.956-10.329-139.433-25.821c-41.314-15.492-82.627-41.314-113.612-72.298s-56.806-67.135-77.464-113.612c-20.656-41.314-30.985-87.791-30.985-139.433s10.329-98.12 25.821-139.433c20.656-41.314 46.477-82.627 77.464-113.612s67.135-56.806 113.612-72.298c41.314-20.656 87.791-25.821 134.27-25.821s92.956 10.329 139.433 25.821c30.985 15.492 61.97 30.985 87.791 51.643l-15.492-15.492v-15.492l242.717-237.553h15.492l67.135 67.135c5.163 5.163 5.163 10.329 5.163 15.492 5.163 10.329 0 15.492-5.163 15.492zM614.543 381.901c0-36.15-5.163-72.298-20.656-103.283s-30.985-56.806-56.806-82.627c-20.656-20.656-51.643-41.314-82.627-56.806s-67.135-20.656-103.283-20.656-72.298 5.163-103.283 20.656c-30.985 15.492-56.806 30.985-82.627 56.806-20.656 20.656-41.314 51.643-56.806 82.627s-20.656 67.135-20.656 103.283c0 36.15 5.163 67.135 20.656 98.12s30.985 56.806 56.806 82.627c20.656 25.821 51.643 41.314 82.627 56.806s67.135 20.656 103.283 20.656c36.15 0 72.298-5.163 103.283-20.656s56.806-30.985 82.627-56.806c20.656-20.656 41.314-51.643 56.806-82.627 15.492-25.821 20.656-61.97 20.656-98.12z" />
<glyph unicode="&#xe60c;" glyph-name="word-burst" horiz-adv-x="725" d="M120.905 127.292l-75.044-41.689c-16.678 29.185-25.017 58.366-33.353 87.553s-12.508 62.536-12.508 95.891c0 45.858 8.339 91.722 25.017 133.411s37.521 79.214 66.705 108.395c29.185 33.353 62.536 58.366 104.227 79.214 37.521 20.847 83.383 33.353 125.072 37.521v-83.383c-33.353-4.169-66.705-12.508-91.722-29.185-29.185-16.678-54.197-37.521-75.044-62.536s-37.521-54.197-50.028-83.383c-12.508-33.353-16.678-62.536-16.678-100.059 0-25.017 4.169-50.028 8.339-75.044 0-20.847 12.508-41.689 25.017-66.705zM633.705 48.078c-16.678-20.847-33.353-41.689-54.197-58.366s-41.689-29.185-66.705-41.689c-25.017-12.508-50.028-20.847-75.044-25.017s-54.197-8.339-83.383-8.339c-29.185 0-54.197 4.169-79.214 8.339s-50.028 12.508-70.875 25.017c-20.847 12.508-45.858 25.017-62.536 37.521-20.847 16.678-37.521 33.353-54.197 50.028l75.044 45.858c25.017-25.017 54.197-45.858 87.553-62.536 33.353-12.508 70.875-20.847 108.395-20.847 41.689 0 79.214 8.339 116.733 25.017s66.705 41.689 91.722 70.875l66.705-45.858zM233.473 198.167l-75.044-41.689c-8.339 16.678-16.678 33.353-20.847 50.028s-8.339 37.521-8.339 54.197c0 29.185 4.169 54.197 12.508 79.214s20.847 45.858 37.521 66.705c16.678 20.847 37.521 37.521 58.366 50.028s45.858 20.847 75.044 29.185v-91.722c-29.185-4.169-50.028-20.847-70.875-45.858s-29.185-54.197-29.185-83.383c0-12.508 0-20.847 4.169-33.353 8.339-16.678 12.508-25.017 16.678-33.353zM446.097 156.478l79.214-45.858c-20.847-25.017-45.858-41.689-75.044-58.366-29.185-12.508-62.536-20.847-91.722-20.847s-58.366 4.169-87.553 16.678c-29.185 12.508-50.028 29.185-70.875 45.858l79.214 45.858c12.508-8.339 20.847-16.678 37.521-20.847 12.508-4.169 29.185-8.339 41.689-8.339 16.678 0 33.353 4.169 50.028 8.339 12.508 16.678 25.017 25.017 37.521 37.521zM421.081 323.239c-16.678 16.678-37.521 25.017-62.536 25.017s-45.858-8.339-62.536-25.017c-16.678-16.678-25.017-37.521-25.017-62.536s8.339-45.858 25.017-62.536c16.678-16.678 37.521-25.017 62.536-25.017s45.858 8.339 62.536 25.017c16.678 16.678 25.017 37.521 25.017 62.536s-8.339 45.858-25.017 62.536zM629.536 269.042c0 33.353-4.169 66.705-16.678 100.059-12.508 29.185-29.185 58.366-50.028 83.383s-45.858 45.858-75.044 62.536c-29.185 16.678-58.366 25.017-91.722 33.353v83.383c45.858-4.169 87.553-20.847 125.072-37.521 37.521-20.847 70.875-45.858 100.059-79.214s50.028-66.705 66.705-108.395c16.678-41.689 25.017-83.383 25.017-129.241 0-29.185-4.169-58.366-12.508-87.553s-16.678-54.197-33.353-83.383l-75.044 41.689c8.339 20.847 16.678 41.689 20.847 62.536 12.508 12.508 16.678 33.353 16.678 58.366zM496.125 260.703c0 33.353-8.339 62.536-25.017 83.383-16.678 25.017-41.689 41.689-66.705 50.028v87.553c25.017-4.169 50.028-16.678 70.875-29.185s41.689-29.185 58.366-50.028c16.678-20.847 29.185-41.689 37.521-66.705s12.508-50.028 12.508-79.214c0-16.678 0-29.185-4.169-45.858s-8.339-29.185-16.678-45.858l-75.044 41.689c4.169 8.339 4.169 12.508 4.169 20.847 0 12.508 4.169 25.017 4.169 33.353z" />
<glyph unicode="&#xe60e;" glyph-name="pause-hollow" horiz-adv-x="757" d="M733.978 445.055c-21.213 46.674-46.674 89.107-80.618 123.050s-76.376 63.646-123.050 84.861c-46.674 21.213-97.59 29.702-148.509 29.702s-101.835-8.487-148.509-29.702c-46.674-21.213-89.107-46.674-123.050-84.861-33.944-33.944-63.646-76.376-80.618-123.050-21.213-46.674-29.702-97.59-29.702-148.509s8.487-101.835 29.702-148.509c21.213-46.674 46.674-89.107 80.618-123.050s76.376-63.646 123.050-80.618c46.674-21.213 97.59-29.702 148.509-29.702s101.835 8.487 148.509 29.702c46.674 21.213 89.107 46.674 123.050 80.618s63.646 76.376 80.618 123.050c21.213 46.674 29.702 97.59 29.702 148.509s-8.487 101.835-29.702 148.509zM347.859 402.622v-216.398c0-4.241 0-4.241-4.241-8.487s-8.487-4.241-12.73-4.241h-38.187c-4.241 0-4.241 0-8.487 4.241s-4.241 4.241-4.241 8.487v216.398c0 0 0 4.241 4.241 8.487s8.487 4.241 12.73 4.241h38.187c4.241 0 8.487 0 12.73-4.241 0-4.241 4.241-4.241 0-8.487zM487.881 186.224c0-4.241 0-4.241-4.241-8.487s-8.487-4.241-12.73-4.241h-38.187c-4.241 0-8.487 0-8.487 4.241-4.241 4.241-4.241 4.241-4.241 8.487v216.398c0 0 0 4.241 4.241 8.487s8.487 4.241 12.73 4.241h38.187c4.241 0 8.487 0 12.73-4.241s4.241-4.241 4.241-8.487v-216.398z" />
<glyph unicode="&#xe60f;" glyph-name="play-hollow" horiz-adv-x="768" d="M738.697 448.923c-20.87 45.911-45.911 87.651-83.476 121.041-33.392 33.392-75.13 62.61-121.041 83.476s-96.003 29.219-150.26 29.219c-54.261 0-104.348-8.346-150.26-29.219s-87.651-45.911-121.041-83.476c-33.392-33.392-62.61-75.13-83.476-121.041s-29.219-96.003-29.219-150.26c0-54.261 8.346-104.348 29.219-150.26s45.911-87.651 83.476-121.041c33.392-33.392 75.13-62.61 121.041-83.476s96.003-29.219 150.26-29.219c54.261 0 104.348 8.346 150.26 29.219s87.651 45.911 121.041 83.476c33.392 33.392 62.61 75.13 83.476 121.041s29.219 96.003 29.219 150.26c0 50.085-8.346 100.175-29.219 150.26zM525.827 294.49l-208.697-121.041c-4.173-4.173-8.346-4.173-12.52 0-4.173 0-4.173 4.173-4.173 8.346v246.262c0 4.173 0 8.346 4.173 8.346s8.346 0 12.52 0l104.348-62.61 104.348-58.437c4.173-4.173 8.346-8.346 8.346-12.52-4.173-4.173-4.173-8.346-8.346-8.346z" />
<glyph unicode="&#xe610;" glyph-name="edit-circle" horiz-adv-x="768" d="M376.906 677.013c50.824 0 101.645-8.471 148.235-29.648s88.939-46.589 122.822-80.468c33.884-33.884 63.528-76.232 84.703-122.822s29.648-97.41 29.648-148.235c0-55.059-8.471-101.645-29.648-148.235s-46.589-88.939-80.468-122.822c-33.884-33.884-76.232-63.528-122.822-80.468-46.589-21.177-97.41-29.648-148.235-29.648s-101.645 8.471-148.235 29.648c-46.589 21.177-88.939 46.589-122.822 80.468s-63.528 76.232-80.468 122.822c-21.177 46.589-29.648 97.41-29.648 148.235s8.471 101.645 29.648 148.235c21.177 46.589 46.589 88.939 80.468 122.822s76.232 63.528 122.822 80.468 88.939 29.648 144 29.648zM165.145 71.373l122.822 29.648c4.235 0 4.235 4.235 4.235 8.471l-93.174 93.174c-4.235 4.235-8.471 0-8.471-4.235l-29.648-122.822c0 0 0-4.235 0-4.235s0 0 4.235 0zM563.26 380.549l-97.41 97.41c0 0-4.235 0-8.471 0l-241.409-241.409c0 0 0-4.235 0-8.471l97.41-97.41c0 0 4.235 0 8.471 0l241.409 241.409c0 4.235 0 4.235 0 8.471zM626.786 435.604c0 0 0 4.235 0 8.471s-4.235 8.471-4.235 8.471l-84.703 84.703c-4.235 4.235-8.471 4.235-8.471 4.235-4.235 0-8.471 0-8.471-4.235l-33.884-33.884c0 0 0-4.235 0-8.471l97.41-97.41c0 0 4.235 0 8.471 0l33.884 38.119z" />
<glyph unicode="&#xe611;" glyph-name="drop" horiz-adv-x="572" d="M22.442 391.57h516.154c13.464 0 22.441-17.954 13.464-31.418l-255.833-287.251c-8.977-8.977-17.954-8.977-26.93 0l-255.833 287.251c-13.464 13.464-4.488 31.418 8.977 31.418z" />
<glyph unicode="&#xe612;" glyph-name="edit" horiz-adv-x="642" d="M29.882-11.265c-8.513-4.174-8.513 0-8.513 8.513l59.586 153.22 102.147-102.147-153.22-59.586zM429.949 499.466l102.088-102.088-319.244-319.244-102.088 102.088 319.244 319.244zM613.058 478.108l-12.853-12.683-38.222-38.222-101.98 101.98 12.683 12.853 25.536 25.536 12.683 12.853c8.513 8.513 17.023 8.513 25.536 0l76.443-76.609c8.513-8.513 8.513-21.364 0.167-25.704z" />
<glyph unicode="&#xe613;" glyph-name="collapse-btn" horiz-adv-x="645" d="M328.131 568.274v-237.613c0-11.315 11.315-16.972 22.63-5.657l260.243 260.243c11.315 11.315 28.287 5.657 28.287-11.315v-594.033c0-16.972-16.972-22.63-28.287-11.315l-260.243 260.243c-5.657 5.657-16.972 0-16.972-5.657v-243.271c0-16.972-16.972-22.63-28.287-11.315l-299.845 299.845c-5.657 5.657-5.657 16.972 0 28.287l299.845 299.845c0 0 22.63-11.315 22.63-28.287z" />
<glyph unicode="&#xe614;" glyph-name="expand-btn" horiz-adv-x="640" d="M299.845-20.037v243.271c0 11.315-11.315 16.972-16.972 5.657l-260.243-260.243c-11.315-11.315-22.63 0-22.63 11.315v605.348c0 11.315 16.972 16.972 22.63 11.315l260.243-260.243c5.657-5.657 22.63 0 22.63 11.315v243.271c0 11.315 16.972 16.972 22.63 11.315l299.845-299.845c5.657-5.657 5.657-11.315 0-16.972l-299.845-299.845c-16.972-22.63-28.287-16.972-28.287-5.657z" />
<glyph unicode="&#xe615;" glyph-name="female-icon" horiz-adv-x="683" d="M106.398 334.82c0 0 58.519 0 69.157 111.715 0 0 0 196.831 42.559 250.029 0 0 26.599 58.519 127.674 58.519 0 0 42.559 0 85.115-26.599 0 0 58.519 0 85.115-42.559 0 0 26.599-42.559 26.599-154.274 0 0-15.96-170.234 58.519-196.831 0 0 0-42.559-154.274-42.559 0 0 0-58.519 0-69.157l-101.075-292.588c0 0-85.115 265.989-85.115 292.588 0 0 0 58.519 0 69.157 0-10.64-95.755-26.599-154.274 42.559zM335.148-80.123l-122.355 175.553-69.157-15.96c15.96 0 58.519 111.715 69.157 154.274 0 0-26.599-26.599-154.274-69.157 0 0-58.519-26.599-58.519-85.115 0 0 0-10.64 0-26.599s0-26.599 0-42.559v-95.755h351.104l-15.96 5.32zM633.056 164.586c-127.674 42.559-154.274 69.157-154.274 69.157 15.96-42.559 58.519-154.274 69.157-154.274l-69.157 15.96-127.674-180.873h335.144v95.755c0 15.96 0 42.559 0 58.519 0 10.64 0 15.96 0 15.96 5.32 53.199-53.199 79.795-53.199 79.795z" />
<glyph unicode="&#xe616;" glyph-name="male-icon" horiz-adv-x="725" d="M144.215 546.959c0 0-16.64 127.567 33.277 171.938 0 0 33.277 49.917 110.93 33.277 0 0 0 33.277 33.277 33.277 0 0 94.289 0 155.301-33.277 0 0 61.012-49.917 77.649-94.289 0 0 33.277-61.012 0-127.567 0 0 49.917 0 49.917-33.277 0 0 0-49.917-16.64-77.649 0 0 0-33.277-49.917-33.277 0 0-16.64-77.649-61.012-127.567 0 0-49.917-49.917-94.289-49.917 0 0-33.277-16.64-77.649 0 0 0-61.012 33.277-94.289 77.649 0 5.545-33.277 38.826-33.277 83.198 0 0-49.917 0-49.917 61.012 0 0-16.64 61.012 16.64 77.649-27.731 38.826-16.64 38.826 0 38.826zM709.952-2.138c0 27.731-16.64 55.463-38.826 83.198-27.731 33.277-171.938 99.835-171.938 99.835l-77.649-205.219-61.012 110.93 16.64 16.64c33.277 33.277 33.277 61.012 33.277 61.012 0 33.277-61.012 33.277-61.012 33.277-33.277 0-61.012-49.917-61.012-49.917 0-49.917 49.917-77.649 49.917-77.649l-61.012-94.289-61.012 188.578c-16.64 0-127.567-38.826-155.301-55.463s-61.012-49.917-61.012-83.198c0-16.64 0-110.93 0-110.93h732.127l-22.186 83.198z" />
<glyph unicode="&#xe617;" glyph-name="negative-icon" horiz-adv-x="763" d="M731.28 438.768c-21.135 46.5-46.5 88.771-80.314 122.585s-76.088 63.406-122.585 80.314c-46.5 21.135-97.224 29.588-147.947 29.588s-101.45-8.453-147.947-29.588c-46.5-21.135-84.541-46.5-122.585-80.314-33.818-33.818-63.406-76.088-80.314-122.585-21.135-46.5-29.588-97.224-29.588-147.947 0-54.953 8.453-101.45 29.588-147.947s46.5-84.541 80.314-118.359c33.818-33.818 76.088-59.178 122.585-80.314s92.994-29.588 147.947-29.588c50.724 0 101.45 8.453 147.947 29.588s84.541 46.5 118.359 80.314c33.818 33.818 63.406 76.088 80.314 122.585 21.135 46.5 29.588 92.994 29.588 147.947 4.229 50.724-8.453 97.224-25.365 143.721zM549.516 240.098h-325.485c-8.453 0-12.682 4.229-12.682 12.682v71.859c0 8.453 4.229 12.682 12.682 12.682h325.485c8.453 0 12.682-4.229 12.682-12.682v-71.859c0-4.229-4.229-12.682-12.682-12.682z" />
<glyph unicode="&#xe618;" glyph-name="neutral-icon" horiz-adv-x="773" d="M762.331 295.84c0-55.059-8.471-101.645-29.648-148.235s-46.589-88.939-80.468-122.822c-33.884-33.884-76.232-63.528-122.822-80.468-46.589-21.177-97.41-29.648-148.235-29.648s-101.645 8.471-148.235 29.648c-46.589 21.177-88.939 46.589-122.822 80.468s-63.528 76.232-80.468 122.822c-21.177 46.589-29.648 97.41-29.648 148.235s8.471 101.645 29.648 148.235c21.177 46.589 46.589 88.939 80.468 122.822s76.232 63.528 122.822 80.468c46.589 21.177 97.41 29.648 148.235 29.648 55.059 0 101.645-8.471 148.235-29.648s84.703-46.589 122.822-80.468c33.884-33.884 63.528-76.232 80.468-122.822 21.177-46.589 29.648-97.41 29.648-148.235z" />
<glyph unicode="&#xe619;" glyph-name="positive-icon" horiz-adv-x="779" d="M658.817 573.546c38.257-38.257 63.763-80.768 85.015-127.526 17.002-46.758 29.756-93.518 29.756-144.528s-8.501-97.77-29.756-144.528c-17.002-46.758-46.758-89.269-85.015-127.526s-80.768-63.763-127.526-85.015c-46.758-17.002-97.77-29.756-144.528-29.756-51.012 0-97.77 8.501-144.528 29.756-46.758 17.002-89.269 46.758-127.526 85.015s-63.763 80.768-85.015 127.526c-17.002 46.758-29.756 93.518-29.756 144.528s8.501 97.77 29.756 144.528c17.002 46.758 46.758 89.269 85.015 127.526s80.768 63.763 127.526 85.015c46.758 17.002 93.518 29.756 144.528 29.756s97.77-8.501 144.528-29.756c46.758-21.255 89.269-46.758 127.526-85.015zM429.268 122.955v119.025c0 4.252 4.252 8.501 8.501 8.501h123.273c4.252 0 8.501 4.252 8.501 8.501v68.013c0 4.252-4.252 8.501-8.501 8.501l-127.526 4.252c-4.252 0-8.501 4.252-8.501 8.501v123.273c0 4.252-4.252 8.501-8.501 8.501h-72.267c-4.252 0-8.501-4.252-8.501-8.501v-123.273c0-4.252-4.252-8.501-8.501-8.501h-123.273c-4.252 0-8.501-4.252-8.501-8.501v-68.013c0-4.252 4.252-8.501 8.501-8.501h127.526c4.252 0 8.501-4.252 8.501-8.501v-123.273c0-4.252 4.252-8.501 8.501-8.501h72.267c4.252 0 8.501 4.252 8.501 8.501z" />
<glyph unicode="&#xe61a;" glyph-name="compose" horiz-adv-x="939" d="M626.075 196.35v-168.497c0-19.592-19.592-39.185-39.185-39.185h-470.223c-19.592 0-39.185 19.592-39.185 39.185v470.223c0 19.592 19.592 39.185 39.185 39.185h403.608l70.533 70.533c-11.756 3.919-27.43 7.836-43.103 7.836h-391.852c-86.208 0-156.741-70.533-156.741-156.741v-391.852c0-86.208 70.533-156.741 156.741-156.741h391.852c86.208 0 156.741 70.533 156.741 156.741v207.681l-78.37-78.37zM927.801 635.224l-86.208 86.208c-7.836 7.836-19.592 7.836-27.43 0l-54.859-54.859 113.636-113.636 54.859 54.859c7.836 7.836 7.836 19.592 0 27.43zM441.904 125.816l-109.719 109.719-62.697-164.577c-3.919-11.756 0-15.675 11.756-11.756l160.659 66.615zM724.454 629.042l113.602-113.602-357.431-357.432-113.602 113.602 357.432 357.431z" />
<glyph unicode="&#xe61b;" glyph-name="drafts" horiz-adv-x="939" d="M140.178 446.698h380.097v-43.103h-380.097v43.103zM140.178 336.979h376.177v-43.103h-376.177v43.103zM140.178 227.261h372.259v-43.103h-372.259v43.103zM140.178 125.379h368.341v-43.103h-368.341v43.103zM626.075 199.831v-168.497c0-19.592-19.592-39.185-39.185-39.185h-470.223c-19.592 0-39.185 19.592-39.185 39.185v470.223c0 19.592 19.592 39.185 39.185 39.185h403.608l70.533 70.533c-11.756 3.919-27.43 7.836-43.103 7.836h-391.852c-86.208 0-156.741-70.533-156.741-156.741v-391.852c0-86.208 70.533-156.741 156.741-156.741h391.852c86.208 0 156.741 70.533 156.741 156.741v207.681l-78.37-78.37zM927.801 638.705l-86.208 86.208c-7.836 7.836-19.592 7.836-27.43 0l-54.859-54.859 113.636-113.636 54.859 54.859c7.836 7.836 7.836 19.592 0 27.43zM441.904 129.298l-109.719 109.719-62.697-164.577c-3.919-11.756 0-15.674 11.756-11.756l160.659 66.615zM724.454 632.524l113.602-113.602-357.431-357.431-113.602 113.602 357.432 357.432z" />
<glyph unicode="&#xe61c;" glyph-name="expand-window" d="M213.333 307.204v196.267c0 4.267 4.267 8.533 8.533 8.533h192c4.267 0 8.533-4.267 4.267-8.533l-68.267-68.267 76.8-76.8c4.267-4.267 4.267-12.8 0-17.067l-42.667-42.667c-4.267-4.267-12.8-4.267-17.067 0l-76.8 76.8-68.267-68.267c-4.267-4.267-8.533-4.267-8.533 0zM384 128.004c-4.267 4.267-12.8 4.267-17.067 0l-76.8-76.8-68.267 68.267c-4.267 4.267-8.533 4.267-8.533 0v-192c0-8.533 4.267-12.8 8.533-12.8h192c4.267 0 8.533 4.267 4.267 8.533l-68.267 68.267 76.8 76.8c4.267 4.267 4.267 12.8 0 17.067l-42.667 42.667zM802.133 512.004h-192c-4.267 0-8.533-4.267-4.267-8.533l68.267-68.267-76.8-76.8c-4.267-4.267-4.267-12.8 0-17.067l42.667-42.667c4.267-4.267 12.8-4.267 17.067 0l76.8 76.8 68.267-68.267c4.267-4.267 8.533-4.267 8.533 0v196.267c0 4.267-4.267 8.533-8.533 8.533zM802.133 119.47l-68.267-68.267-76.8 76.8c-4.267 4.267-12.8 4.267-17.067 0l-42.667-42.667c-4.267-4.267-4.267-12.8 0-17.067l76.8-76.8-68.267-68.267c-4.267-4.267-4.267-8.533 4.267-8.533h192c4.267 0 8.533 4.267 8.533 8.533v192c0 8.533-4.267 8.533-8.533 4.267zM597.333 277.337c0 12.8-8.533 21.333-21.333 21.333h-128c-12.8 0-21.333-8.533-21.333-21.333v-128c0-12.8 8.533-21.333 21.333-21.333h128c12.8 0 21.333 8.533 21.333 21.333v128z" />
<glyph unicode="&#xe61d;" glyph-name="inbox" horiz-adv-x="768" d="M764.092 273.331l-120.361 361.086c0 6.335-9.503 12.669-19.004 12.669h-481.448c-9.503 0-19.004-6.334-19.004-15.837l-120.361-357.917c0 0 0-338.913 0-338.913 0-9.503 6.335-15.836 15.836-15.836h728.506c9.503 0 15.836 6.335 15.836 15.836 0 0 0 338.913 0 338.913zM190.79 552.062h383.257l95.024-285.069h-126.696l-63.349-158.37h-190.045l-63.349 158.37h-129.864l95.024 285.069z" />
<glyph unicode="&#xe61e;" glyph-name="minimize-window" d="M810.667 473.603l-76.8-76.8 68.267-68.267c4.267-4.267 4.267-8.533-4.267-8.533h-192c-4.267 0-8.533 4.267-8.533 8.533v196.267c0 4.267 4.267 8.533 8.533 4.267l68.267-68.267 76.8 72.533c4.267 4.267 12.8 4.267 17.067 0l42.667-42.667c4.267-4.267 4.267-12.8 0-17.067zM810.667-21.33l-42.667-42.667c-4.267-4.267-12.8-4.267-17.067 0l-76.8 76.8-68.267-68.267c-4.267-4.267-8.533-4.267-8.533 4.267v192c0 4.267 4.267 8.533 8.533 8.533h192c4.267 0 8.533-4.267 4.267-8.533l-68.267-68.267 76.8-76.8c4.267-4.267 4.267-12.8 0-17.067zM213.333 490.67l42.667 42.667c4.267 4.267 12.8 4.267 17.067 0l76.8-76.8 68.267 68.267c4.267 4.267 8.533 4.267 8.533 0v-192c0-8.533-4.267-12.8-8.533-12.8h-196.267c-4.267 0-8.533 4.267-4.267 8.533l68.267 68.267-72.533 76.8c-4.267 4.267-4.267 12.8 0 17.067zM213.333-4.263l76.8 76.8-68.267 68.267c-4.267 4.267-4.267 8.533 0 8.533h192c4.267 0 8.533-4.267 8.533-8.533v-192c0-4.267-4.267-8.533-8.533-4.267l-68.267 68.267-72.533-76.8c-4.267-4.267-12.8-4.267-17.067 0l-42.667 42.667c-4.267 4.267-4.267 12.8 0 17.067z" />
<glyph unicode="&#xe61f;" glyph-name="checkmark" horiz-adv-x="768" d="M732.698 444.075c-21.177 46.589-46.589 84.703-80.468 122.822-33.884 33.884-76.232 63.528-122.822 80.468-46.589 21.177-97.41 29.648-148.235 29.648s-101.645-8.471-148.235-29.648c-46.589-21.177-84.703-46.589-122.822-80.468-33.884-33.884-63.528-76.232-80.468-122.822-21.177-46.589-29.648-97.41-29.648-148.235s8.471-101.645 29.648-148.235c21.177-46.589 46.589-84.703 80.468-122.822 33.884-33.884 76.232-63.528 122.822-80.468 46.589-21.177 97.41-29.648 148.235-29.648s101.645 8.471 148.235 29.648c46.589 21.177 84.703 46.589 122.822 80.468 33.884 33.884 63.528 76.232 80.468 122.822 21.177 46.589 29.648 97.41 29.648 148.235s-8.471 101.645-29.648 148.235zM622.581 405.96l-300.701-300.701c0 0-4.235 0-8.471 0s-4.235 0-8.471 0l-67.762 67.762c0 0-4.235 4.235-8.471 4.235-4.235 4.235-4.235 4.235-8.471 8.471l-80.468 80.468c0 0 0 4.235 0 8.471s0 4.235 0 8.471l67.762 67.762c0 0 4.235 0 8.471 0s4.235 0 8.471 0l80.468-80.468c0 0 4.235-4.235 8.471-4.235s4.235 0 8.471 4.235l220.232 215.996c0 0 4.235 4.235 4.235 4.235 4.235 0 4.235 0 8.471-4.235l67.762-67.762c0-4.235 0-4.235 0-8.471 4.235 0 4.235-4.235 0-4.235z" />
<glyph unicode="&#xe620;" glyph-name="close-circle" horiz-adv-x="768" d="M381.141 677.013c50.824 0 101.645-8.471 148.235-29.648s88.939-46.589 122.822-80.468c33.884-33.884 63.528-76.232 80.468-122.822 21.177-46.589 29.648-97.41 29.648-148.235 0-55.059-8.471-101.645-29.648-148.235s-46.589-84.703-80.468-122.822c-33.884-33.884-76.232-63.528-122.822-80.468-46.589-21.177-97.41-29.648-148.235-29.648s-101.645 8.471-148.235 29.648c-46.589 21.177-88.939 46.589-122.822 80.468s-63.528 76.232-80.468 122.822c-21.177 46.589-29.648 97.41-29.648 148.235s8.471 101.645 29.648 148.235c21.177 46.589 46.589 88.939 80.468 122.822s76.232 63.528 122.822 80.468c46.589 21.177 93.174 29.648 148.235 29.648zM554.789 181.491l-110.116 114.351 110.116 110.116c0 0 4.235 4.235 4.235 8.471s0 8.471-4.235 8.471l-46.589 46.589c0 0-4.235 4.235-8.471 4.235s-8.471 0-8.471-4.235l-110.116-110.116-110.116 110.116c0 0-4.235 4.235-8.471 4.235s-8.471 0-8.471-4.235l-50.824-46.589c0 0-4.235-4.235-4.235-8.471s0-8.471 4.235-8.471l114.351-114.351-110.116-114.351c0 0-4.235-4.235-4.235-8.471s0-8.471 4.235-8.471l46.589-46.589c0 0 4.235-4.235 8.471-4.235s8.471 0 8.471 4.235l110.116 110.116 110.116-110.116c0 0 4.235-4.235 8.471-4.235s8.471 0 8.471 4.235l46.589 46.589c0 0 4.235 4.235 4.235 8.471 0 8.471-4.235 12.706-4.235 12.706z" />
<glyph unicode="&#xe621;" glyph-name="calendar-circle" horiz-adv-x="768" d="M386.734 688.329c-212.542 0-386.831-174.284-386.831-386.831s174.284-386.831 386.831-386.831 386.831 174.284 386.831 386.831-174.284 386.831-386.831 386.831zM458.996 514.045c0 4.252 4.252 4.252 0 0l34.008 4.252c0 0 4.252 0 4.252-4.252v-76.514c0 0 0-4.252-4.252-4.252h-29.756c0 0-4.252 0-4.252 4.252v76.514zM276.21 514.045c0 4.252 0 4.252 0 0l34.008 4.252c0 0 4.252 0 4.252-4.252v-76.514c0 0 0-4.252-4.252-4.252h-29.756c0 0-4.252 0-4.252 4.252v76.514zM603.528 122.961c0-17.002-12.754-29.756-29.756-29.756h-374.076c-17.002 0-29.756 12.754-29.756 29.756v323.065c0 17.002 12.754 29.756 29.756 29.756h59.512v-42.511c0-12.754 8.501-21.255 21.255-21.255h29.756c12.754 0 21.255 8.501 21.255 21.255v42.511h114.771v-42.511c0-12.754 8.501-21.255 21.255-21.255h29.756c12.754 0 21.255 8.501 21.255 21.255v42.511h59.512c17.002 0 29.756-12.754 29.756-29.756v-323.065zM535.515 378.014h-306.063c-8.501 0-17.002-4.252-17.002-12.754v-208.293c0-8.501 8.501-12.754 17.002-12.754h306.063c8.501 0 17.002 4.252 17.002 12.754v208.293c0 8.501-8.501 12.754-17.002 12.754z" />
<glyph unicode="&#xe622;" glyph-name="circle-chart" horiz-adv-x="940" d="M691.243 184.716c0-113.619-92.107-205.725-205.725-205.725s-205.725 92.107-205.725 205.725c0 113.619 92.107 205.725 205.725 205.725s205.725-92.107 205.725-205.725zM935.859 184.716c0-58.316-47.274-105.589-105.589-105.589s-105.589 47.274-105.589 105.589c0 58.316 47.274 105.589 105.589 105.589s105.589-47.274 105.589-105.589zM823.365 390.443c0-45.766-37.105-82.871-82.871-82.871s-82.871 37.105-82.871 82.871c0 45.766 37.105 82.871 82.871 82.871s82.871-37.105 82.871-82.871zM266.705 106.753c0-72.668-58.907-131.577-131.577-131.577s-131.577 58.907-131.577 131.577c0 72.668 58.907 131.577 131.577 131.577s131.577-58.907 131.577-131.577zM830.27-24.824c0-49.583-40.195-89.779-89.779-89.779s-89.779 40.195-89.779 89.779c0 49.583 40.195 89.779 89.779 89.779s89.779-40.195 89.779-89.779zM307.232 390.443c0-58.316-47.274-105.589-105.589-105.589s-105.589 47.274-105.589 105.589c0 58.316 47.274 105.589 105.589 105.589s105.589-47.274 105.589-105.589z" />
<glyph unicode="&#xe623;" glyph-name="favorite" horiz-adv-x="812" d="M411.548 656.434l111.778-223.556c0-5.081 5.081-5.081 10.161-10.161l248.961-35.566c10.161 0 15.242-15.242 10.161-25.403l-177.829-172.748c-5.081-5.081-5.081-10.161-5.081-10.161l40.647-243.88c0-10.161-10.161-20.324-20.324-15.242l-223.556 116.86c-5.081 0-10.161 0-15.242 0l-218.476-116.86c-10.161-5.081-20.324 5.081-20.324 15.242l40.647 243.88c0 5.081 0 10.161-5.081 10.161l-177.829 172.748c-10.161 10.161-5.081 20.324 10.161 25.403l248.961 35.566c5.081 0 10.161 5.081 10.161 10.161l106.697 223.556c5.081 10.161 20.324 10.161 25.403 0z" />
<glyph unicode="&#xe624;" glyph-name="quote" horiz-adv-x="599" d="M145.563 343.935v0l83.178-5.198c10.397 0 15.596-5.198 15.596-15.596v-213.145c0-10.397-5.198-15.596-15.596-15.596h-213.145c-10.397 0-15.596 5.198-15.596 15.596v223.542c0 51.987 10.397 93.575 25.993 124.767s36.39 57.185 72.781 83.178c31.192 20.795 72.781 36.39 129.966 36.39 10.397 0 15.596-5.198 15.596-15.596v-67.582c0-5.198-5.198-10.397-10.397-15.596-62.384-15.596-88.377-62.384-88.377-135.165zM483.475 343.935v0l83.178-5.198c10.397 0 15.596-5.198 15.596-15.596v-213.145c0-10.397-5.198-15.596-15.596-15.596h-213.145c-10.397 0-15.596 5.198-15.596 15.596v223.542c0 51.987 10.397 93.575 25.993 124.767s36.39 57.185 72.781 83.178c31.192 20.795 72.781 36.39 129.966 36.39 10.397 0 15.596-5.198 15.596-15.596v-67.582c0-5.198-5.198-10.397-10.397-15.596-62.384-15.596-88.377-62.384-88.377-135.165z" />
<glyph unicode="&#xe625;" glyph-name="reply" horiz-adv-x="811" d="M746.644 46.482c-33.945 28.288-67.89 50.917-113.149 73.547-45.26 16.972-90.519 28.288-141.437 39.602-45.26 5.657-90.519 11.315-141.437 5.657-11.315 0-16.972-5.657-16.972-16.972v-130.122c0-5.657 0-5.657-5.657-5.657 0 0-5.657 0-11.315 5.657l-311.16 237.613c-5.657 0-5.657 5.657-5.657 11.315s0 5.657 5.657 11.315l311.16 237.613c5.657 0 5.657 0 11.315 0 0 0 5.657-5.657 5.657-11.315v-118.807c0-11.315 5.657-16.972 16.972-16.972 79.204-5.657 147.094-22.63 203.67-50.917 62.232-28.288 113.149-62.232 158.409-107.492 39.602-39.602 67.89-84.861 84.861-135.779 5.657-22.63 11.315-45.26 16.972-62.232 0-16.972-22.63-28.288-28.288-11.315-11.315 11.315-22.63 28.288-39.602 45.26z" />
<glyph unicode="&#xe626;" glyph-name="retweet" horiz-adv-x="791" d="M100.454-23.521v220.189c0 9.573-9.573 19.147-19.147 19.147h-57.44c-14.36 0-23.933 19.147-14.36 33.506l129.241 162.748c9.573 9.573 23.933 9.573 28.721 0l143.602-162.748c9.573-14.36 0-33.506-14.36-33.506h-71.8c-9.573 0-19.147-9.573-19.147-19.147v-90.948c0-9.573 9.573-19.147 19.147-19.147h129.241c4.787 0 9.573-4.787 14.36-4.787l71.8-86.16c9.573-14.36 0-33.506-14.36-33.506h-311.136c-4.787-4.787-14.36 0-14.36 14.36zM679.644 407.282v-215.402c0-9.573 9.573-19.147 19.147-19.147h57.44c14.36 0 23.933-19.147 14.36-33.506l-129.241-162.748c-9.573-9.573-23.933-9.573-28.721 0l-143.602 162.748c-9.573 14.36 0 33.506 14.36 33.506h71.8c9.573 0 19.147 9.573 19.147 19.147v90.948c0 9.573-9.573 19.147-19.147 19.147h-129.241c-4.787 0-9.573 4.787-14.36 4.787l-71.8 86.16c-9.573 14.36 0 33.506 14.36 33.506h311.136c4.787 0 14.36-9.573 14.36-19.147z" />
<glyph unicode="&#xe627;" glyph-name="right-arrow" horiz-adv-x="427" d="M96.176-79.672l-90.519 90.519c-5.657 5.657-5.657 16.972 0 28.287l186.695 186.695c5.657 5.657 5.657 16.972 0 28.287l-186.695 186.695c-5.657 5.657-5.657 16.972 0 28.287l90.519 90.519c5.657 5.657 16.972 5.657 28.287 0l299.845-305.503c5.657-5.657 5.657-16.972 0-28.287l-299.845-299.845c-11.315-11.315-22.63-11.315-28.287-5.657z" />
<glyph unicode="&#xe628;" glyph-name="warn" horiz-adv-x="768" d="M529.408 647.365c46.589-21.177 88.939-46.589 122.822-80.468s63.528-76.232 80.468-122.822c21.177-46.589 29.648-97.41 29.648-148.235 0-55.059-8.471-101.645-29.648-148.235s-46.589-88.939-80.468-122.822c-33.884-33.884-76.232-63.528-122.822-80.468-46.589-21.177-97.41-29.648-148.235-29.648s-101.645 8.471-148.235 29.648c-46.589 21.177-88.939 46.589-122.822 80.468s-63.528 76.232-80.468 122.822c-21.177 46.589-29.648 97.41-29.648 148.235s8.471 101.645 29.648 148.235c21.177 46.589 46.589 88.939 80.468 122.822s76.232 63.528 122.822 80.468c46.589 21.177 97.41 29.648 148.235 29.648s101.645-8.471 148.235-29.648zM376.942 41.728c16.942 0 29.648 4.235 42.355 16.942s16.942 25.413 16.942 42.355c0 16.942-4.235 29.648-16.942 42.355s-25.413 16.942-42.355 16.942c-16.942 0-29.648-4.235-42.355-16.942s-16.942-25.413-16.942-42.355c0-16.942 4.235-29.648 16.942-42.355 12.706-8.471 25.413-16.942 42.355-16.942zM415.056 545.718h-80.468c-8.471 0-16.942-8.471-16.942-16.942l12.706-296.466c0-8.471 8.471-16.942 16.942-16.942h55.059c8.471 0 16.942 8.471 16.942 16.942l12.706 296.466c0 8.471-8.471 16.942-16.942 16.942z" />
<glyph unicode="&#xe629;" glyph-name="youtube-no-background" horiz-adv-x="811" d="M609.563 213.973c-7.837 0-11.756 0-11.756-3.919-3.919-3.919-3.919-7.837-3.919-19.592v-19.592h35.267v19.592c0 7.837 0 15.674-3.919 19.592-7.837 0-11.756 3.919-15.674 3.919zM472.413 213.973c-3.919 0-3.919 0-7.837 0s-3.919-3.919-7.837-7.837v-125.392c3.919-3.919 7.837-3.919 7.837-7.835 3.919 0 7.837-3.919 7.837-3.919 3.919 0 7.837 0 11.756 3.919s3.919 7.835 3.919 11.756v101.881c0 7.837 0 11.756-3.919 15.674 0 7.837-3.919 11.756-11.756 11.756zM644.828 370.714h-485.897c-78.37 0-141.067-70.533-141.067-152.823v-113.636c0-78.37 62.697-144.985 141.067-144.985h485.897c78.37 0 141.067 62.697 141.067 144.985v113.636c0 82.289-62.697 152.823-141.067 152.823zM260.814 272.75h-47.023v-231.192h-43.103v231.192h-47.023v39.185h133.23v-39.185zM390.125 45.477h-39.185v23.511c-7.837-7.837-15.674-15.675-23.511-19.592s-15.675-7.837-23.511-7.837c-7.837 0-15.674 3.919-19.592 7.837-3.919 7.837-7.837 15.674-7.837 27.43v164.577h39.185v-152.823c0-3.919 0-7.835 3.919-11.756 0-3.919 3.919-3.919 7.837-3.919s7.837 0 11.756 3.919c3.919 3.919 7.837 7.837 11.756 11.756v152.823h39.185v-195.925zM531.19 84.661c0-15.674-3.919-23.511-7.837-31.348-7.837-7.835-15.674-11.756-27.43-11.756-7.837 0-15.674 0-19.592 3.919-7.837 3.919-11.756 7.837-15.674 11.756v-15.674h-39.185v270.377h39.185v-86.208c3.919 7.837 11.756 11.756 15.674 15.675 7.837 3.919 11.756 3.919 19.592 3.919 11.756 0 23.511-3.919 27.43-11.756 7.837-7.837 7.837-19.592 7.837-35.267v-113.636zM664.422 139.522h-74.452v-39.185c0-11.756 0-19.592 3.919-23.511s7.837-7.837 11.756-7.837c7.837 0 11.756 0 11.756 3.919 3.919 3.919 3.919 11.756 3.919 23.511v7.837h39.185v-11.756c0-19.592-3.919-35.267-15.674-47.023-7.837-11.756-23.511-15.674-43.103-15.674-15.674 0-31.348 3.919-43.103 15.674s-15.674 27.43-15.674 43.103v90.125c0 15.674 3.919 31.348 15.674 43.103s23.511 15.675 43.103 15.675c19.592 0 31.348-3.919 39.185-15.675s15.675-23.511 15.675-43.103v-39.185zM162.851 731.217l58.777-180.253v-117.556h50.941v121.474l54.859 176.333h-47.023l-31.348-121.474h-3.919l-31.348 121.474zM350.94 641.090c-11.756-11.756-15.675-23.511-15.675-39.185v-113.636c0-19.592 3.919-35.267 15.675-43.103 11.756-11.756 27.43-15.674 47.023-15.674s35.267 3.919 47.023 15.674c11.756 11.756 15.674 23.511 15.674 43.103v113.636c0 15.674-3.919 31.348-15.674 39.185-11.756 11.756-27.43 15.674-43.103 15.674-23.511 0-39.185-3.919-50.941-15.674zM413.635 601.906v-117.556c0-3.919 0-11.756-3.919-15.675s-7.835-3.919-15.674-3.919c-3.919 0-11.756 0-11.756 3.919-3.919 3.919-3.919 7.837-3.919 15.675v117.556c0 3.919 0 7.837 3.919 11.756s7.837 3.919 11.756 3.919c3.919 0 11.756 0 15.674-3.919 3.919 0 3.919-3.919 3.919-11.756zM621.318 433.41v219.436h-43.103v-164.577c-3.919-3.919-7.837-7.837-11.756-11.756s-7.837-3.919-11.756-3.919c-3.919 0-7.837 0-7.837 3.919s-3.919 7.837-3.919 11.756v168.497h-43.103v-184.17c0-11.756 3.919-23.511 7.837-27.43 3.919-7.837 11.756-11.756 23.511-11.756 7.837 0 15.674 3.919 23.511 7.837s15.674 11.756 23.511 19.592v-23.511h43.103z" />
<glyph unicode="&#xe62a;" glyph-name="linkedin-no-background" horiz-adv-x="853" d="M17.346 489.465h191.517v-544.511h-191.517v544.511zM111.227 572.079c52.573 0 93.882 41.307 93.882 93.882s-41.307 93.882-93.882 93.882c-52.573 0-93.882-41.307-93.882-93.882s41.307-93.882 93.882-93.882zM832.235 245.372c0 146.455-30.042 244.090-202.783 244.090-82.616 0-138.944-30.042-161.476-75.105h-3.755v75.105h-150.21v-544.511h157.72v270.377c0 71.35 15.021 138.944 101.392 138.944s93.882-82.616 93.882-142.699v-266.623h161.476v300.419z" />
<glyph unicode="&#xe62b;" glyph-name="google-plus-no-background" horiz-adv-x="811" d="M608.582 160.742h33.798c7.51 0 15.022 7.51 15.022 15.022v116.413h116.413c7.509 0 15.021 7.51 15.021 15.022v33.798c0 7.51-7.51 15.022-15.021 15.022h-116.413v116.414c0 7.51-7.51 15.021-15.022 15.021h-33.798c-7.509 0-15.021-7.51-15.021-15.021v-116.413h-116.413c-7.51 0-15.022-7.51-15.022-15.022v-33.798c0-7.51 7.51-15.022 15.022-15.022h116.413v-116.413c-3.755-7.51 3.757-15.022 15.021-15.022zM146.688-42.040c30.042-7.51 60.085-11.266 93.882-11.266 30.042 0 56.328 3.757 82.616 11.266 82.616 22.531 135.189 82.616 135.189 153.965 0 67.594-22.531 105.147-78.86 146.455-26.287 18.776-45.064 41.307-48.818 52.573 0 15.022 0 22.531 33.798 45.064 41.307 33.798 63.839 75.105 63.839 120.167 0 41.307-11.266 78.86-33.798 101.392h15.022c3.755 0 7.51 0 11.266 3.757l45.064 33.798c7.51 3.755 7.51 11.266 7.51 18.776-3.755 7.51-7.51 11.266-15.022 11.266h-206.539c-22.531 0-45.064-3.757-67.594-11.266-75.105-26.287-127.679-90.125-127.679-153.965 0-93.882 71.35-161.476 168.986-165.231-3.755-7.51-3.755-15.022-3.755-22.531 0-15.022 3.755-26.287 11.266-41.307 0 0 0 0-3.755 0-90.126 0-172.742-45.064-206.539-112.659-7.51-18.776-11.266-33.798-11.266-52.573s3.755-33.798 11.266-48.818c26.287-37.552 67.594-63.839 123.923-78.86zM165.463 479.939c-3.755 33.798 3.755 63.839 18.776 82.616 11.266 11.266 26.287 18.776 41.307 18.776h3.755c45.064 0 90.125-52.573 97.636-112.657 3.755-33.798-3.755-67.594-18.776-86.37-11.266-11.266-26.287-18.776-41.307-18.776v0 0c-48.818 0-93.882 52.573-101.392 116.414zM251.834 194.54v0c18.776 0 30.042-3.757 45.064-7.51 3.755-3.755 11.266-7.51 15.022-11.266 33.798-22.531 52.573-37.552 60.085-60.085 0-7.51 3.755-11.266 3.755-18.776 0-60.085-45.064-90.126-131.433-90.126-67.594 0-120.167 41.307-120.167 93.882-3.755 52.573 60.085 93.882 127.679 93.882z" />
<glyph unicode="&#xe62c;" glyph-name="instagram-no-background" horiz-adv-x="832" d="M650.052 726.404h-478.639c-82.771 0-151.148-68.377-151.148-151.148v-478.639c0-82.771 68.377-151.148 151.148-151.148h478.639c82.771 0 151.148 68.377 151.148 151.148v478.639c-3.599 82.771-68.377 151.148-151.148 151.148zM693.237 636.436h17.994v-133.155h-133.155v133.155h115.16zM297.371 416.909c25.192 35.987 64.778 57.581 111.562 57.581s86.37-21.592 111.563-57.581c17.994-21.592 25.192-50.382 25.192-79.174 0-75.574-61.179-136.753-136.753-136.753s-136.753 61.179-136.753 136.753c0 28.79 10.797 57.581 25.192 79.174zM722.028 96.618c0-39.586-32.39-75.574-75.574-75.574h-478.639c-39.586 0-75.574 32.39-75.574 75.574v320.291h115.16c-10.797-25.192-14.395-50.382-14.395-79.174 0-118.76 97.167-212.327 212.327-212.327 118.76 0 212.327 97.167 212.327 212.327 0 28.79-7.197 53.981-14.396 79.174h115.16v-320.291z" />
<glyph unicode="&#xe62d;" glyph-name="twitter-no-background" horiz-adv-x="832" d="M782.12 588.712c-33.051-19.83-66.103-33.051-102.459-39.663-29.747 29.747-72.715 49.577-118.985 49.577-89.238 0-161.952-72.715-161.952-161.952 0-13.22 0-26.44 3.305-36.356-135.51 6.61-254.495 69.407-337.124 168.561-13.221-23.136-23.136-52.883-23.136-79.322 0-56.187 29.747-105.764 72.715-132.205-26.44 0-52.883 6.61-72.715 19.83v-3.305c0-79.322 56.187-142.122 132.205-158.645-13.221-3.305-29.747-6.61-42.967-6.61-9.916 0-19.83 0-29.747 3.305 19.83-62.798 82.628-109.070 152.036-112.375-56.187-42.967-125.594-69.407-201.614-69.407-13.22 0-26.44 0-39.663 3.305 72.715-46.271 158.646-72.715 251.19-72.715 300.766 0 466.023 244.579 466.023 456.107 0 6.61 0 13.221 0 19.83 33.051 23.136 59.492 49.577 82.628 82.628-29.747-13.221-59.492-19.83-92.543-26.44 26.44 26.44 49.576 56.187 62.798 95.848z" />
<glyph unicode="&#xe62e;" glyph-name="facebook-no-background" horiz-adv-x="384" d="M91.833-65.584h145.7v364.253h109.276l12.142 145.7h-115.346v57.673c0 27.32 18.212 36.426 33.389 36.426h81.957v124.453h-112.312c-124.453 0-154.807-94.1-154.807-151.771v-66.78h-72.851v-145.701h72.851v-364.253z" />
<glyph unicode="&#xe62f;" glyph-name="left-arrow" horiz-adv-x="427" d="M5.657 254.112l299.845 305.503c5.657 5.657 16.972 5.657 28.287 0l90.519-90.519c5.657-5.657 5.657-16.972 0-28.287l-186.696-186.696c-5.657-5.657-5.657-16.972 0-28.287l186.696-186.696c5.657-5.657 5.657-16.972 0-28.287l-90.519-90.519c-5.657-5.657-16.972-5.657-28.287 0l-299.845 299.845c-5.657 16.972-5.657 28.287 0 33.945z" />
<glyph unicode="&#xe630;" glyph-name="deep-analytics" horiz-adv-x="1028" d="M733.693 391.341h-81.521v159.646h81.521v-159.646zM880.205 832.010v-562.498h-206.521c-2.491 24.683-8.605 49.592-19.022 73.596-3.17 7.246-6.793 14.266-10.417 21.286h131.793v372.961h-552.987v-370.243c-17.21-29.891-27.853-63.179-31.25-97.599h-72.916v562.498h761.32zM395.153 485.544v180.027h81.748v-181.159c-26.721 4.982-54.121 5.435-81.748 1.132zM266.756 422.591v128.396h81.748v-77.672c-4.076-1.585-8.379-3.17-12.455-4.982-26.268-11.549-49.592-27.174-69.293-45.743zM523.775 470.598v122.282h81.748v-176.856c-23.551 24.004-51.404 42.346-81.748 54.574zM925.268 53.027c-7.473-19.022-25.589-30.571-44.837-30.571-5.888 0-11.775 1.132-17.663 3.397l-265.398 104.166c-20.607-28.985-48.913-52.989-84.012-68.387-102.128-44.61-220.787 2.038-265.398 104.166s2.038 220.787 104.166 265.398c102.128 44.61 220.787-2.038 265.398-104.166 15.172-35.1 19.701-72.011 15.172-107.11l265.398-104.166c24.683-9.964 36.911-37.817 27.174-62.726zM542.797 294.195c-26.494 60.688-97.146 88.541-157.835 62.047s-88.541-97.146-62.047-157.835c26.494-60.688 97.146-88.541 157.835-62.047s88.541 97.146 62.047 157.835zM1026.038-52.272v955.613c0 19.475-15.625 35.1-35.1 35.1h-955.613c-19.701 0.226-35.326-15.398-35.326-34.873v-955.613c0-19.475 15.625-35.1 35.1-35.1h955.613c19.475-0.226 35.326 15.625 35.326 34.873z" />
<glyph unicode="&#xe631;" glyph-name="logout" horiz-adv-x="725" d="M360.5 602.84c-198.928 0-360.053-161.28-360.053-360.053 0-198.928 161.28-360.053 360.053-360.053 198.928 0 360.053 161.28 360.053 360.053 0.155 198.773-161.125 360.053-360.053 360.053zM458.879 64c0-15.029-12.24-27.267-27.266-27.267h-209.463c-15.029 0-27.267 12.24-27.267 27.267v357.418c0 15.029 12.24 27.266 27.267 27.266h209.463c15.029 0 27.266-12.24 27.266-27.266v-90.323h-40.282c-30.831 0-55.929-25.098-55.929-55.929v-74.365c0-30.831 25.098-55.929 55.929-55.929h40.282v-80.872zM516.977 130.619v53.451h-100.238c-13.788 0-24.943 11.155-24.943 24.943v70.647c0 13.788 11.155 24.943 24.943 24.943h100.238v50.352l116.041-114.492-116.041-109.844z" />
<glyph unicode="&#xe632;" glyph-name="posts" horiz-adv-x="768" d="M508.125 67.737c0-14.27-11.566-25.834-25.834-25.834s-25.834 11.566-25.834 25.834c0 14.269 11.566 25.834 25.834 25.834s25.834-11.566 25.834-25.834zM508.125 402.691c0-14.269-11.566-25.834-25.834-25.834s-25.834 11.566-25.834 25.834c0 14.269 11.566 25.834 25.834 25.834s25.834-11.566 25.834-25.834zM224.692 233.728c0-14.27-11.566-25.834-25.834-25.834s-25.834 11.566-25.834 25.834c0 14.269 11.566 25.834 25.834 25.834s25.834-11.566 25.834-25.834zM386.379 608.771c-203.259 0-367.915-164.655-367.915-367.914s164.655-367.915 367.915-367.915c203.259 0 367.914 164.655 367.914 367.915s-164.805 367.914-367.914 367.914zM284.674 233.728c0-8.017-1.187-15.886-3.267-23.31l138.675-83.738c15.589 16.48 37.712 26.726 62.21 26.726 47.511 0 85.965-38.454 85.965-85.965s-38.455-85.965-85.965-85.965c-47.511 0-85.965 38.455-85.965 85.965 0 6.978 0.891 13.808 2.524 20.193l-139.565 84.778c-15.589-15.44-36.82-24.943-60.428-24.943-47.51 0-85.965 38.454-85.965 85.965s38.455 85.965 85.965 85.965c21.974 0 41.87-8.314 57.013-21.826l142.533 86.56c-1.336 5.941-1.93 12.026-1.93 18.262 0 47.511 38.454 85.965 85.965 85.965s85.965-38.454 85.965-85.965-38.454-85.965-85.965-85.965c-23.904 0-45.58 9.799-61.171 25.685l-139.862-84.927c2.079-7.277 3.267-15.144 3.267-23.458z" />
<glyph unicode="&#xe633;" glyph-name="lock" horiz-adv-x="768" d="M266.822 444.075c-8.471 0-16.942-4.235-25.413-12.706s-12.706-16.942-12.706-25.413c0-8.471 4.235-16.942 12.706-25.413s16.942-12.706 25.413-12.706c8.471 0 16.942 4.235 25.413 12.706s8.471 16.942 8.471 25.413c0 8.471-4.235 16.942-8.471 25.413-8.471 12.706-16.942 12.706-25.413 12.706zM732.698 444.075c-21.177 46.589-46.589 88.939-80.468 122.822s-76.232 63.528-122.822 80.468c-46.589 21.177-97.41 29.648-148.235 29.648-55.059 0-101.645-8.471-148.235-29.648s-88.939-46.589-122.822-80.468c-33.884-33.884-63.528-76.232-80.468-122.822-21.177-46.589-29.648-97.41-29.648-148.235 0-55.059 8.471-101.645 29.648-148.235s46.589-88.939 80.468-122.822c33.884-33.884 76.232-63.528 122.822-80.468 46.589-21.177 97.41-29.648 148.235-29.648 55.059 0 101.645 8.471 148.235 29.648s88.939 46.589 122.822 80.468c33.884 33.884 63.528 76.232 80.468 122.822 21.177 46.589 29.648 97.41 29.648 148.235s-8.471 101.645-29.648 148.235zM575.995 151.846v-55.059c0-4.235-4.235-4.235-4.235-4.235h-71.997c-4.235 0-4.235 4.235-4.235 4.235l-4.235 29.648c0 4.235-4.235 4.235-4.235 4.235l-33.884 4.235c-4.235 0-4.235 4.235-4.235 4.235l-4.235 33.884c0 4.235-4.235 4.235-4.235 4.235l-33.884 4.235c-4.235 0-4.235 4.235-4.235 4.235l-4.235 29.648c0 4.235-4.235 4.235-4.235 4.235l-29.648 4.235c0 0-4.235 0-4.235 0l-16.942 16.942c0 0-4.235 4.235-8.471 0-4.235 0-8.471-4.235-12.706-4.235-8.471 0-12.706 0-21.177 0-38.119 0-67.762 12.706-93.174 38.119s-38.119 55.059-38.119 93.174c0 38.119 12.706 67.762 38.119 93.174s55.059 38.119 93.174 38.119c21.177 0 42.355-4.235 63.528-16.942 16.942-12.706 33.884-25.413 46.589-42.355 0 0 0-4.235 4.235-4.235 0 0 0-4.235 4.235-4.235v0c0 0 0-4.235 4.235-4.235 0 0 0-4.235 4.235-4.235 0 0 0 0 0 0s0 0 0 0 0 0 0 0 0 0 0 0c4.235-8.471 4.235-12.706 4.235-21.177s4.235-16.942 4.235-21.177c0-4.235 0-12.706 0-16.942s0-8.471 0-12.706c0-4.235 0-8.471 4.235-8.471l148.235-148.235c0 0 0-4.235 0-4.235v-38.119z" />
<glyph unicode="&#xe634;" glyph-name="drop-up" horiz-adv-x="551" d="M538.582 44.23h-516.141c-13.464 0-22.441 17.953-13.464 31.417l255.826 287.243c8.977 8.977 17.953 8.977 26.929 0l255.826-287.243c13.464-13.464 8.977-31.417-8.977-31.417z" />
<glyph unicode="&#xe635;" glyph-name="campaigns" horiz-adv-x="555" d="M74.863 225.696c-39.272 0-71.143-31.872-71.143-71.143s31.872-71.143 71.143-71.143 71.143 31.872 71.143 71.143c0.143 39.272-31.729 71.143-71.143 71.143zM74.863 108.881c-25.184 0-45.53 20.347-45.53 45.53s20.347 45.531 45.53 45.531 45.531-20.347 45.531-45.531c0.143-25.041-20.347-45.53-45.531-45.53zM272.072 504.718c-39.272 0-71.143-31.872-71.143-71.143s31.872-71.143 71.143-71.143 71.143 31.872 71.143 71.143c0 39.272-31.872 71.143-71.143 71.143zM272.072 387.902c-25.184 0-45.531 20.347-45.531 45.531s20.347 45.53 45.531 45.53 45.53-20.347 45.53-45.53c0-25.184-20.347-45.53-45.53-45.53zM469.282 318.181c-39.272 0-71.143-31.872-71.143-71.143s31.872-71.143 71.143-71.143 71.143 31.872 71.143 71.143c0 39.272-31.872 71.143-71.143 71.143zM469.282 201.507c-25.184 0-45.531 20.347-45.531 45.531s20.347 45.53 45.531 45.53 45.53-20.347 45.53-45.53c0-25.184-20.347-45.531-45.53-45.531zM75.717 237.648v0c-8.82 0-15.937 7.114-15.937 15.937v299.227c0 8.82 7.114 15.937 15.937 15.937v0c8.82 0 15.937-7.114 15.937-15.937v-299.227c0-8.821-7.114-15.937-15.937-15.937zM75.717-51.051v0c-8.82 0-15.937 7.114-15.937 15.937v92.201c0 8.82 7.114 15.937 15.937 15.937v0c8.82 0 15.937-7.114 15.937-15.937v-92.201c0-8.82-7.114-15.937-15.937-15.937zM271.504-51.051v0c-8.82 0-15.937 7.114-15.937 15.937v368.236c0 8.821 7.114 15.937 15.937 15.937v0c8.82 0 15.937-7.114 15.937-15.937v-368.236c0-8.82-7.114-15.937-15.937-15.937zM467.288-51.051v0c-8.821 0-15.937 7.114-15.937 15.937v183.407c0 8.82 7.114 15.938 15.937 15.938v0c8.821 0 15.937-7.114 15.937-15.938v-183.407c0-8.82-7.114-15.937-15.937-15.937zM467.288 329.565v0c-8.821 0-15.937 7.114-15.937 15.937v207.169c0 8.821 7.114 15.937 15.937 15.937v0c8.821 0 15.937-7.114 15.937-15.937v-207.169c0-8.82-7.114-15.937-15.937-15.937zM271.504 515.817v0c-8.82 0-15.937 7.114-15.937 15.937v20.917c0 8.82 7.114 15.937 15.937 15.937v0c8.82 0 15.937-7.114 15.937-15.937v-20.917c0-8.82-7.114-15.937-15.937-15.937z" />
<glyph unicode="&#xe636;" glyph-name="support" horiz-adv-x="768" d="M732.64 444.075c-21.177 46.589-46.589 84.703-80.468 122.822-33.884 33.884-76.232 63.528-122.822 80.468-46.589 21.177-97.41 29.648-148.235 29.648s-101.645-8.471-148.235-29.648c-46.589-21.177-84.703-46.589-122.822-80.468-33.884-33.884-63.528-76.232-80.468-122.822-21.177-46.589-29.648-97.41-29.648-148.235s8.471-101.645 29.648-148.235c21.177-46.589 46.589-84.703 80.468-122.822 33.884-33.884 76.232-63.528 122.822-80.468 46.589-21.177 97.41-29.648 148.235-29.648s101.645 8.471 148.235 29.648c46.589 21.177 84.703 46.589 122.822 80.468 33.884 33.884 63.528 76.232 80.468 122.822 21.177 46.589 29.648 97.41 29.648 148.235s-8.471 101.645-29.648 148.235zM431.934 50.2c-12.706-12.706-29.648-21.177-50.824-21.177s-38.119 8.471-46.589 21.177c-12.706 12.706-16.942 29.648-16.942 50.824s4.235 38.119 16.942 50.824c12.706 12.706 29.648 21.177 46.589 21.177 21.177 0 38.119-8.471 50.824-21.177s16.942-29.648 16.942-50.824c0-21.177-4.235-38.119-16.942-50.824zM516.641 367.843c-12.706-21.177-29.648-38.119-42.355-55.059s-25.413-29.648-29.648-46.589c-4.235-16.942-8.471-33.884-8.471-50.824v-4.235c0-4.235-4.235-8.471-8.471-8.471h-80.468c-4.235 0-8.471 4.235-8.471 8.471v8.471c0 21.177 0 38.119 8.471 59.293s21.177 42.355 38.119 59.293c12.706 12.706 21.177 29.648 29.648 42.355s12.706 25.413 12.706 38.119-4.235 25.413-12.706 29.648c-8.471 8.471-21.177 12.706-42.355 12.706-12.706 0-25.413 0-38.119-4.235-8.471-4.235-16.942-4.235-25.413-8.471-4.235-4.235-12.706 0-12.706 4.235l-21.177 63.528c0 4.235 0 8.471 4.235 12.706 12.706 8.471 29.648 12.706 46.589 16.942 21.177 8.471 46.589 8.471 71.997 8.471 50.824 0 88.939-12.706 110.116-33.884 25.413-25.413 33.884-50.824 33.884-84.703-4.235-21.177-8.471-46.589-25.413-67.762z" />
<glyph unicode="&#xe637;" glyph-name="myposts" horiz-adv-x="704" d="M260.652 255.133c0 1.708-0.427 3.414-0.569 5.122l229.366 127.345c22.339-18.923 50.939-30.735 82.667-30.735 71.143 0 128.911 57.627 128.911 128.911 0 71.143-57.626 128.911-128.911 128.911-71.143 0-128.911-57.626-128.911-128.911 0-6.546 0.997-12.949 1.992-19.209l-220.401-122.365c-23.477 24.473-56.346 39.84-92.912 39.84-71.143 0-128.911-57.626-128.911-128.911 0-71.143 57.627-128.911 128.911-128.911 35.43 0 67.586 14.37 90.778 37.42l220.971-122.792c2.419-69.009 58.763-124.359 128.485-124.359 71.143 0 128.911 57.626 128.911 128.911 0 71.143-57.626 128.911-128.911 128.911-39.699 0-74.701-18.355-98.319-46.528l-213.999 118.809c0.143 2.845 0.854 5.549 0.854 8.538z" />
<glyph unicode="&#xe638;" glyph-name="likes" horiz-adv-x="683" d="M652.117 224.061c0-4.939 4.939-9.881 4.939-14.82s0-14.82-4.939-24.701c0-9.881 0-14.82-4.939-24.701s-9.881-14.82-19.762-24.701c0 0 4.939-4.939 4.939-9.881s0-4.939 0-9.881c0-9.881 0-19.762-4.939-24.701-4.939-9.881-9.881-14.82-19.762-24.701 0 0 4.939-4.939 4.939-9.881s0-9.881 0-9.881c0-19.762-4.939-34.582-19.762-49.403s-34.582-24.701-59.284-24.701h-242.071c-9.881 0-14.82 0-19.762 4.939s-14.82 4.939-19.762 9.881c0 0 0 4.939-4.939 4.939v-9.881c0-4.939 0-9.881-4.939-14.82s-9.881-9.881-19.762-9.881h-177.849c-4.939 0-9.881 4.939-14.82 9.881s-9.881 9.881-9.881 14.82l-19.762 271.714c0 4.939 0 4.939 0 9.881s4.939 4.939 4.939 9.881c4.939 0 9.881 4.939 9.881 4.939 4.939 0 4.939 0 9.881 0h197.61c0 0 4.939 0 4.939 0s4.939 0 4.939-4.939c0 0 0 4.939 4.939 4.939 0 0 4.939 0 4.939 4.939 9.881 9.881 24.701 29.641 49.403 69.164s39.522 64.223 44.463 74.104c0 9.881 0 39.522 0 79.043 0 0 0 4.939 0 9.881s0 4.939 4.939 9.881c0 4.939 4.939 9.881 14.82 14.82s19.762 4.939 29.641 4.939c4.939 0 9.881 0 14.82 0s9.881-4.939 19.762-4.939c0 0 4.939-4.939 4.939-4.939s4.939-4.939 4.939-4.939c0 0 9.881-9.881 19.762-34.582s14.82-49.403 19.762-69.164v-4.939c-4.939-39.522-9.881-69.164-9.881-83.985h163.028c14.82 0 19.762 0 29.641-4.939 4.939-4.939 9.881-4.939 14.82-9.881s9.881-9.881 9.881-19.762c0-4.939 4.939-14.82 4.939-19.762 0-9.881 0-14.82-4.939-24.701-9.881-19.762-19.762-29.641-24.701-34.582zM365.582 515.537v0 0 0 0zM375.463 520.476c0 0 0 0 0 0s0 0 0 0z" />
<glyph unicode="&#xe639;" glyph-name="heart" horiz-adv-x="725" d="M364.328 458.662c34.936 44.917 69.87 74.862 109.798 84.843s79.853 9.981 114.788-4.991c34.936-14.972 69.87-39.926 94.826-69.87 24.953-34.936 39.926-74.862 39.926-114.788 0-34.936-9.981-64.881-34.936-94.826s-54.898-64.881-89.834-99.815c-34.936-34.936-74.862-74.862-114.788-114.788-34.936-34.936-69.87-74.862-104.807-119.779-9.981-9.981-24.953-9.981-34.936 0-34.936 44.917-69.87 79.853-104.807 119.779-39.926 39.926-79.853 79.853-114.788 114.788s-64.881 69.87-89.834 99.815c-24.953 29.945-34.936 64.881-34.936 94.826 0 44.917 14.972 79.853 39.926 114.788s59.89 59.89 94.826 69.87c34.936 14.972 74.862 14.972 119.779 4.991s79.853-39.926 109.798-84.843z" />
<glyph unicode="&#xe63c;" glyph-name="photo" horiz-adv-x="725" d="M436.714 251.582c0-39.117-31.71-70.827-70.827-70.827s-70.827 31.71-70.827 70.827c0 39.117 31.71 70.827 70.827 70.827s70.827-31.71 70.827-70.827zM620.218 486.593h-90.143c0 0 0 3.219 0 3.219l-9.659 19.316c-12.879 28.974-48.292 54.729-80.483 54.729h-144.872c-32.195 0-70.827-25.754-80.483-54.729l-9.659-19.316c0 0 0-3.219 0-3.219h-90.143c-48.292 0-90.143-41.851-90.143-90.143v-267.205c0-48.292 41.851-90.143 90.143-90.143h505.439c48.292 0 90.143 41.851 90.143 90.143v267.205c0 51.511-41.851 90.143-90.143 90.143zM365.888 113.148c-77.264 0-138.43 61.167-138.43 138.43s61.167 138.43 138.43 138.43 138.43-61.167 138.43-138.43c0-77.264-61.167-138.43-138.43-138.43zM629.874 383.576h-51.511v25.754h51.511v-25.754zM578.367 409.329h51.511v-25.754h-51.511v25.754z" />
<glyph unicode="&#xe800;" glyph-name="add2" horiz-adv-x="747" d="M634.909 566.585c-139.087 139.087-367.806 139.087-506.893 0s-139.087-367.806 0-506.893c139.087-139.087 367.806-139.087 506.893 0s139.087 367.806 0 506.893zM421.64 140.053h-83.454v132.906h-135.996v83.454h132.906v132.906h83.454v-132.906l135.996-3.091v-83.454h-132.906v-129.815z" />
<glyph unicode="&#xe801;" glyph-name="refresh" horiz-adv-x="704" d="M99.809 230.186h-83.579c-23.402 93.607-6.69 197.243 53.492 284.167 106.982 147.098 307.568 183.872 461.355 83.579h3.342l43.462 56.833c3.342 6.69 10.030 6.69 13.372-3.342l53.492-177.192c3.342-6.69-3.342-13.372-10.030-13.372l-183.872-3.342c-6.69 0-10.030 3.342-6.69 10.030l40.121 56.833c-113.667 73.547-264.107 43.462-344.343-63.524-50.148-70.205-60.171-157.128-33.432-230.676h-6.69zM674.829 393.999h-86.927c23.402-73.547 13.372-160.47-33.432-230.676-80.235-110.325-230.676-137.068-344.343-63.524l40.121 56.833c3.342 6.69 3.342 10.030-6.69 10.030l-183.872-3.342c-6.69 0-13.372-6.69-10.030-13.372l53.492-177.192c3.342-6.69 6.69-6.69 13.372-3.342l43.462 56.833h3.342c150.44-100.295 354.369-63.524 461.355 83.579 60.171 86.927 73.547 190.56 50.148 284.167z" />
<glyph unicode="&#xe802;" glyph-name="undo" horiz-adv-x="640" d="M321.897 14.222c-122.787 0-222.342 99.555-222.342 222.342 0 9.955 0 16.593 0 23.231h-99.555c0-6.638 0-16.593 0-23.231 0-179.2 146.013-321.897 321.897-321.897 179.2 0 321.897 146.013 321.897 321.897 0 169.245-132.742 308.621-298.665 321.897v-99.555c112.831-13.274 199.11-106.193 199.11-222.342 3.317-122.787-99.555-222.342-222.342-222.342v0zM149.335 512.002l199.11-149.335v298.665l-199.11-149.335z" />
<glyph unicode="&#xe900;" glyph-name="settings" horiz-adv-x="789" d="M647.781 253.436l76.424 10.918c7.279 0 10.918 7.279 10.918 10.918v76.424c0 7.279-3.64 10.918-10.918 10.918l-76.424 10.918c-7.279 36.393-21.835 69.145-40.030 98.259l47.31 61.867c3.64 3.64 3.64 10.918 0 14.556l-54.589 54.589c-3.64 3.64-10.918 3.64-14.556 0l-61.867-47.31c-29.114 18.195-61.867 32.754-98.259 40.030l-7.279 76.424c0 3.64-7.279 10.918-10.918 10.918h-76.424c-7.279 0-10.918-3.64-10.918-10.918l-10.918-76.424c-36.393-7.279-69.145-21.835-98.259-40.030l-61.867 47.31c-3.64 3.64-10.918 3.64-14.556 0l-54.589-54.589c-3.64-3.64-3.64-10.918 0-14.556l47.31-61.867c-18.195-29.114-32.754-61.867-40.030-98.259l-76.424-10.918c-7.279 0-10.918-7.279-10.918-10.918v-76.424c0-7.279 3.64-10.918 10.918-10.918l76.424-10.918c7.279-36.393 21.835-69.145 40.030-98.259l-47.31-61.867c-3.64-3.64-3.64-10.918 0-14.556l54.589-54.589c3.64-3.64 10.918-3.64 14.556 0l61.867 47.31c29.114-18.195 61.867-32.754 98.259-40.030l10.918-76.424c0-7.279 7.279-10.918 10.918-10.918h76.424c7.279 0 10.918 3.64 10.918 10.918l7.279 76.424c21.835 3.64 43.67 10.918 61.867 21.835l-61.867 61.867c-18.195-7.279-36.393-7.279-58.23-7.279-112.815 0-203.797 90.98-203.797 203.797s90.98 203.797 203.797 203.797c112.815 0 203.797-90.98 203.797-203.797 0-18.195-3.64-36.393-7.279-54.589l61.867-61.867c10.918 18.195 18.195 36.393 21.835 58.23zM727.844 53.278v0l-214.713 207.436c14.556 50.949 0 109.178-40.030 152.848-43.67 40.030-101.899 50.949-152.848 36.393l50.949-47.31c10.918-10.918 10.918-29.114 0-40.030l-47.31-50.949c-10.918-10.918-29.114-10.918-40.030 0l-50.949 47.31c-14.556-50.949-3.64-112.815 40.030-152.848s101.899-50.949 156.489-32.754l211.074-207.436c25.475-25.475 65.505-21.835 90.98 3.64 21.835 18.195 18.195 58.23-3.64 83.704zM706.009-23.146c-7.279-7.279-21.835-7.279-29.114 0s-7.279 21.835 0 29.114c7.279 7.279 21.835 7.279 29.114 0s7.279-18.195 0-29.114z" />
<glyph unicode="&#xe901;" glyph-name="undo-circle" horiz-adv-x="768" d="M743.872 450.273c-21.255 46.758-46.758 89.269-85.015 123.273s-76.514 63.763-123.273 85.015c-46.758 21.255-97.77 29.756-148.781 29.756s-102.022-8.501-148.781-29.756c-46.758-21.255-89.269-46.758-123.273-85.015-34.007-34.007-63.763-76.514-85.015-123.273s-29.756-97.77-29.756-148.781 8.501-102.022 29.756-148.781c21.255-46.758 46.758-89.269 85.015-123.273 34.007-34.007 76.514-63.763 123.273-85.015s97.77-29.756 148.781-29.756c51.012 0 102.022 8.501 148.781 29.756s89.269 46.758 123.273 85.015c34.007 34.007 63.763 76.514 85.015 123.273s29.756 97.77 29.756 148.781-8.501 102.022-29.756 148.781zM612.093 182.468c-12.754-29.756-29.756-55.259-51.012-76.514s-46.758-38.257-76.514-51.012c-29.756-12.754-59.512-17.002-93.518-17.002s-63.763 4.252-89.269 17.002c-29.756 12.754-55.259 29.756-76.514 51.012s-38.257 46.758-51.012 72.267c-12.754 29.756-17.002 59.512-17.002 93.518 0 4.252 0 4.252 0 8.501v0c0 4.252 4.252 8.501 8.501 8.501h59.512c4.252 0 8.501-4.252 8.501-8.501v-8.501c0-21.255 4.252-42.511 12.754-63.763s21.255-38.257 34.007-51.012c12.754-12.754 29.756-25.503 51.012-34.007s42.511-12.754 63.763-12.754c21.255 0 42.511 4.252 63.763 12.754s38.257 21.255 51.012 34.007c12.754 12.754 25.503 34.007 34.007 51.012 8.501 21.255 12.754 42.511 12.754 63.763s-4.252 42.511-12.754 59.512c-8.501 17.002-17.002 34.007-29.756 51.012-12.754 12.754-29.756 25.503-46.758 34.007s-29.756 12.754-46.758 17.002c-4.252 0-4.252 0-4.252-4.252v-55.259c0-4.252-4.252-4.252-8.501-4.252l-140.28 102.022c-4.252 0-4.252 4.252 0 8.501l140.28 102.022c4.252 0 8.501 0 8.501-4.252v-63.763c0 0 0-4.252 4.252-4.252 25.503-4.252 51.012-8.501 72.267-21.255 25.503-12.754 51.012-29.756 68.013-51.012 21.255-21.255 34.007-46.758 46.758-72.267s17.002-55.259 17.002-85.015c4.252-38.257 0-68.013-12.754-97.77z" />
<glyph unicode="&#xe902;" glyph-name="retry-circle" horiz-adv-x="768" d="M742.52 445.055c-21.213 46.674-46.674 89.107-84.861 123.050-33.944 33.944-76.376 63.646-123.050 84.861s-97.59 29.702-148.509 29.702-101.835-8.487-148.509-29.702c-46.674-21.213-89.107-46.674-123.050-84.861-33.944-33.944-63.646-76.376-84.861-123.050s-29.702-97.59-29.702-148.509c0-50.916 8.487-101.835 29.702-148.509s46.674-89.107 84.861-123.050c33.944-33.944 76.376-63.646 123.050-80.618 46.674-21.213 97.59-29.702 148.509-29.702s101.835 8.487 148.509 29.702c46.674 21.213 89.107 46.674 123.050 80.618s63.646 76.376 84.861 123.050c21.213 46.674 29.702 97.59 29.702 148.509s-8.487 101.835-29.702 148.509zM161.218 279.572c0 8.487 0 21.213 0 29.702 0 12.73 0 21.213 4.241 33.944 4.241 16.972 8.487 29.702 12.73 46.674s12.73 29.702 25.461 46.674v0c8.487 12.73 21.213 21.213 29.702 33.944 12.73 8.487 21.213 21.213 33.944 25.461 12.73 8.487 25.461 12.73 38.187 21.213 12.73 4.241 25.461 8.487 42.433 12.73s29.702 4.241 42.433 4.241c12.73 0 29.702 0 42.433-4.241v0c12.73-4.241 29.702-8.487 42.433-16.972 8.487-4.241 21.213-8.487 29.702-16.972l25.461 46.674h12.73l8.487-8.487 33.944-131.535v-8.487c0-4.241-4.241-12.73-12.73-12.73v0l-131.535-4.241h-12.73v16.972l29.702 42.433c-8.487 4.241-12.73 4.241-21.213 8.487s-16.972 4.241-25.461 4.241v0 0c-16.972 4.241-38.187 4.241-55.161 0v0 0c-12.73 0-21.213 0-29.702-4.241s-16.972-8.487-25.461-12.73c-8.487-4.241-16.972-8.487-25.461-16.972s-12.73-16.972-21.213-25.461c-8.487-12.73-12.73-25.461-16.972-33.944-4.241-12.73-8.487-21.213-12.73-33.944v-46.674l-72.135-8.487v12.73zM619.469 313.516c0-8.487 0-21.213 0-33.944s0-25.461-4.241-38.187c-4.241-16.972-4.241-29.702-12.73-46.674-4.241-16.972-12.73-29.702-25.461-46.674-8.487-12.73-21.213-25.461-29.702-33.944s-21.213-16.972-33.944-25.461c-12.73-8.487-25.461-12.73-38.187-21.213-12.73-4.241-29.702-8.487-42.433-12.73v0c-16.972-4.241-29.702-4.241-42.433-4.241s-25.461 0-42.433 4.241v0 0c-16.972 4.241-29.702 12.73-42.433 16.972-8.487 4.241-21.213 8.487-29.702 12.73l-21.213-42.433h-12.73l-8.487 8.487-33.944 131.535v4.241c0 8.487 4.241 12.73 12.73 12.73v0l131.535 4.241h12.73v-16.972l-29.702-42.433c8.487-4.241 12.73-8.487 21.213-8.487 8.487-4.241 16.972-4.241 29.702-8.487v0c16.972-4.241 38.187-4.241 55.161 0v0c8.487 0 16.972 4.241 29.702 8.487 8.487 4.241 16.972 8.487 25.461 12.73s12.73 8.487 21.213 16.972c8.487 8.487 12.73 16.972 21.213 25.461 8.487 12.73 12.73 25.461 16.972 33.944 4.241 12.73 8.487 21.213 8.487 33.944v55.161l72.135 8.487v-8.487z" />
<glyph unicode="&#xe903;" glyph-name="trash-circle" horiz-adv-x="768" d="M310.238 144.212c0 0 4.252 0 4.252 4.252 4.252 4.252 4.252 4.252 4.252 8.501v174.284c0 4.252 0 4.252-4.252 8.501-4.252 0-4.252 4.252-4.252 4.252-4.252 0-4.252 0-8.501-4.252 0 0-4.252-4.252-4.252-8.501v-178.537c0-4.252 0-4.252 4.252-8.501 4.252 0 8.501 0 8.501 0zM391.006 144.212c4.252 0 4.252 0 8.501 4.252 0 4.252 4.252 4.252 4.252 8.501v174.284c0 4.252 0 4.252-4.252 8.501 0 0-4.252 4.252-8.501 4.252s-4.252 0-8.501-4.252c0 0-4.252-4.252-4.252-8.501v-178.537c0-4.252 0-4.252 4.252-8.501 4.252 0 4.252 0 8.501 0zM467.52 144.212c4.252 0 8.501 0 8.501 4.252s0 12.754 0 12.754v174.284c0 4.252 0 4.252-4.252 8.501 0 0-4.252 4.252-8.501 4.252s-4.252 0-8.501-4.252c0 0-4.252-4.252-4.252-8.501v-178.537c0-4.252 0-4.252 4.252-8.501 8.501-4.252 8.501-4.252 12.754-4.252zM743.827 450.274c-21.255 46.758-46.758 85.015-85.015 123.274-34.007 34.007-76.514 63.763-123.274 85.015s-97.77 29.756-148.781 29.756c-51.012 0-102.022-8.501-148.781-29.756s-89.269-46.758-123.274-85.015c-34.007-34.007-63.763-76.514-85.015-123.274s-29.756-97.77-29.756-148.781c0-51.012 8.501-102.022 29.756-148.781s46.758-85.015 85.015-123.274c34.007-34.007 76.514-63.763 123.274-85.015s97.77-29.756 148.781-29.756c51.012 0 102.022 8.501 148.781 29.756s89.269 46.758 123.274 85.015c34.007 34.007 63.763 76.514 85.015 123.274s29.756 97.77 29.756 148.781c0 51.012-8.501 102.022-29.756 148.781zM539.785 88.949c0-4.252 0-4.252 0 0-46.758-17.002-93.518-21.255-153.029-21.255-55.259 0-102.022 8.501-144.528 21.255 0 0-4.252 0-4.252 4.252l-17.002 293.309c0 4.252 0 4.252 4.252 4.252h318.814c4.252 0 4.252 0 4.252-4.252l-8.501-297.562zM561.036 437.52h-340.067c-4.252 0-4.252 0-4.252 4.252v42.511c0 4.252 0 4.252 4.252 4.252h110.524c4.252 0 4.252 0 4.252 4.252v21.255c0 4.252 0 4.252 4.252 4.252h106.27c4.252 0 4.252 0 4.252-4.252v-21.255c0-4.252 0-4.252 4.252-4.252h106.27c4.252 0 4.252 0 4.252-4.252l-4.252-46.758c4.252 0 0 0 0 0z" />
<glyph unicode="&#xe904;" glyph-name="trash" horiz-adv-x="555" d="M341.336 597.333v42.663h-128v-42.663h-213.336v-85.335h554.664v85.335zM512 469.333l-34.135-486.4c0 0-98.135-25.6-200.536-25.6s-200.536 25.6-200.536 25.6l-34.135 486.4h469.335zM383.999 81.069l29.863 307.2c0 12.8-8.535 21.335-21.335 21.335v0c-12.8 0-21.335-8.535-21.335-21.335l-29.863-307.2c0-12.8 8.535-21.335 21.335-21.335v0c12.8 0 21.335 8.535 21.335 21.335zM298.673 81.069v307.2c0 12.8-8.535 21.335-21.335 21.335v0c-12.8-4.263-21.335-12.8-21.335-21.335v-307.2c0-12.8 8.535-21.335 21.335-21.335v0c12.8 0 21.335 8.535 21.335 21.335zM213.336 81.069l-29.863 307.2c0 12.8-8.535 21.335-21.335 21.335v0c-12.8 0-21.335-8.535-21.335-21.335l29.863-307.2c0-12.8 8.535-21.335 21.335-21.335v0c12.8 0 21.335 8.535 21.335 21.335z" />
<glyph unicode="&#xe905;" glyph-name="collection" horiz-adv-x="704" d="M164.907 288.468c0 30.36 24.666 55.025 55.025 55.025h151.798c30.36 0 55.025-24.666 55.025-55.025 0-5.692 5.692-11.385 11.385-11.385h165.080v47.435c0 18.975-15.18 32.256-32.256 32.256h-225.8c-18.975 0-32.256 15.18-32.256 32.256s-15.18 32.256-32.256 32.256h-151.798c-18.975 0-32.256-15.18-32.256-32.256v-341.545c0-18.975 15.18-32.256 32.256-32.256h37.95v273.235zM71.932 390.933c0 30.36 24.666 55.025 55.025 55.025h151.798c30.36 0 55.025-24.666 55.025-55.025 0-5.692 5.692-11.385 11.385-11.385h163.182v49.335c0 18.975-15.18 32.256-32.256 32.256h-227.695c-18.975 0-32.256 15.18-32.256 32.256 0 18.975-15.18 32.256-32.256 32.256h-151.798c-18.975 0-32.256-15.18-32.256-32.256v-341.545c0-18.975 15.18-32.256 32.256-32.256h41.745v271.34zM405.887 288.468v0c0 18.975-15.18 32.256-32.256 32.256h-151.798c-18.975 0-32.256-15.18-32.256-32.256v-341.545c0-18.975 15.18-32.256 32.256-32.256h444.009c18.975 0 32.256 15.18 32.256 32.256v275.135c0 18.975-15.18 32.256-32.256 32.256h-227.695c-18.975 0-32.256 15.18-32.256 34.155z" />
<glyph unicode="&#xe906;" glyph-name="social-profiles" horiz-adv-x="725" d="M663.87 404.052c-35.632 0-65.636-30.004-65.636-65.636 0-3.752 0-7.503 0-9.376l-95.643-33.756c-22.506 48.758-67.512 82.514-123.774 86.266v101.268c28.128 7.503 48.758 33.756 48.758 65.636 0 37.508-30.004 67.512-67.512 67.512s-67.512-30.004-67.512-67.512c0-31.88 20.63-56.262 48.758-65.636v-103.144c-56.262-5.628-95.643-39.384-118.146-88.142l-95.643 33.756c0 3.752 1.876 5.628 1.876 9.376 0 35.632-28.128 65.636-63.76 65.636s-65.636-26.255-65.636-61.886 30.004-65.636 65.636-65.636c24.381 0 45.007 13.126 56.262 33.756l97.516-33.756c-3.752-13.126-5.628-26.255-5.628-39.384 0-45.007 20.63-86.266 50.634-112.521l-60.012-80.638c-9.376 3.752-18.754 5.628-28.128 5.628-35.632 0-65.636-30.004-65.636-65.636s30.004-65.636 65.636-65.636 65.636 30.004 65.636 65.636c0 16.878-7.503 33.756-16.878 45.007l60.012 80.638c22.506-15.002 50.634-22.506 78.764-22.506 30.004 0 58.138 9.376 80.638 24.381l61.886-82.514c-11.25-11.25-16.878-26.255-16.878-45.007 0-35.632 30.004-65.636 65.636-65.636s65.636 30.004 65.636 65.636-30.004 65.636-65.636 65.636c-11.25 0-20.63-1.876-28.128-7.503l-61.886 82.514c30.004 28.128 50.634 67.512 50.634 112.521 0 13.126-1.876 28.128-5.628 39.384l97.516 33.756c11.25-18.754 31.88-33.756 56.262-33.756 35.632 0 65.636 30.004 65.636 65.636s-30.004 65.636-65.636 65.636z" />
<glyph unicode="&#xe907;" glyph-name="clients" horiz-adv-x="685" d="M654.39 294.634c-8.354 0-15.717 5.804-17.415 14.299-9.485 48.845-31.29 95.001-63.144 133.51-31.43 38.085-72.065 68.243-117.513 86.931-9.061 3.681-13.309 14.018-9.629 23.078s14.018 13.309 23.078 9.629c50.828-20.953 96.132-54.65 131.247-97.124 35.537-43.041 59.889-94.717 70.506-149.227 1.84-9.629-4.389-18.831-14.018-20.813-0.85-0.284-1.982-0.284-3.114-0.284zM566.184 0.429c7.22 6.512 7.929 17.698 1.415 25.059-6.512 7.22-17.698 7.929-25.059 1.415-55.217-49.553-126.715-76.878-201.046-76.878-74.895 0-146.82 27.749-202.177 78.012-7.22 6.512-18.407 6.088-25.059-1.275-6.512-7.22-6.088-18.407 1.275-25.059 62.012-56.208 142.288-87.214 225.964-87.214 83.109 0 162.961 30.582 224.689 85.939zM45.732 307.093c18.547 98.115 84.382 180.373 176.127 220.159 8.919 3.822 13.026 14.299 9.202 23.22s-14.299 13.026-23.22 9.202c-102.647-44.457-176.127-136.484-196.797-246.067-1.84-9.629 4.53-18.831 14.158-20.67 1.132-0.14 2.266-0.284 3.257-0.284 8.211 0 15.573 5.947 17.272 14.442zM401.666 555.569c0 34.971-28.316 63.287-63.287 63.287s-63.287-28.316-63.287-63.287 28.316-63.287 63.287-63.287c34.971 0 63.287 28.316 63.287 63.287zM405.206 500.068c-1.982 1.132-4.53 0.85-6.229-0.991-15.149-16.281-36.67-26.334-60.597-26.334-24.068 0-45.731 10.336-60.881 26.617-1.559 1.699-4.105 2.123-6.229 0.991-39.217-21.804-54.226-51.395-55.075-99.25 0-2.83 2.266-5.239 5.097-5.239h233.327c2.83 0 5.097 2.406 5.097 5.239-0.991 47.714-15.573 77.162-54.509 98.966zM617.86 233.755c0 34.971-28.316 63.287-63.287 63.287s-63.287-28.316-63.287-63.287c0-34.971 28.316-63.287 63.287-63.287s63.287 28.316 63.287 63.287zM621.401 178.255c-1.982 1.132-4.53 0.85-6.229-0.991-15.149-16.281-36.67-26.334-60.597-26.334-24.068 0-45.731 10.336-60.881 26.617-1.559 1.699-4.105 2.123-6.229 0.991-39.217-21.804-54.226-51.395-55.075-99.25 0-2.83 2.266-5.239 5.097-5.239h233.327c2.83 0 5.097 2.406 5.097 5.239-0.991 47.571-15.717 77.021-54.509 98.966zM185.613 233.755c0 34.971-28.316 63.287-63.287 63.287s-63.287-28.316-63.287-63.287c0-34.971 28.316-63.287 63.287-63.287s63.287 28.316 63.287 63.287zM189.011 178.255c-1.982 1.132-4.53 0.85-6.229-0.991-15.149-16.281-36.67-26.334-60.597-26.334-24.068 0-45.731 10.336-60.881 26.617-1.559 1.699-4.105 2.123-6.229 0.991-39.217-21.804-54.226-51.395-55.075-99.25 0-2.83 2.266-5.239 5.097-5.239h233.327c2.83 0 5.097 2.406 5.097 5.239-0.991 47.571-15.573 77.021-54.509 98.966z" />
<glyph unicode="&#xe908;" glyph-name="info" horiz-adv-x="768" d="M732.631 444.075c-21.177 46.589-46.589 84.703-80.468 122.822-33.884 33.884-76.232 63.528-122.822 80.468-46.589 21.177-97.41 29.648-148.235 29.648-55.059 0-101.645-8.471-148.235-29.648s-88.939-46.589-122.822-80.468c-33.884-33.884-63.528-76.232-80.468-122.822-21.177-46.589-29.648-97.41-29.648-148.235 0-55.059 8.471-101.645 29.648-148.235s46.589-84.703 80.468-122.822c33.884-33.884 76.232-63.528 122.822-80.468 46.589-21.177 97.41-29.648 148.235-29.648s101.645 8.471 148.235 29.648c46.589 21.177 88.939 46.589 122.822 80.468s63.528 76.232 80.468 122.822c21.177 46.589 29.648 97.41 29.648 148.235s-8.471 101.645-29.648 148.235zM423.455 45.966h-80.468c-8.471 0-12.706 4.235-12.706 12.706v317.641c0 8.471 4.235 12.706 12.706 12.706h80.468c8.471 0 12.706-4.235 12.706-12.706v-317.641c0-8.471-8.471-12.706-12.706-12.706zM427.691 439.839v0c-12.706-12.706-25.413-16.942-42.355-16.942s-29.648 4.235-42.355 16.942c-12.706 12.706-16.942 25.413-16.942 42.355s4.235 29.648 16.942 42.355c12.706 12.706 25.413 16.942 42.355 16.942s29.648-4.235 42.355-16.942c12.706-12.706 16.942-25.413 16.942-42.355 0-12.706-8.471-29.648-16.942-42.355z" />
<glyph unicode="&#xe909;" glyph-name="globe" horiz-adv-x="768" d="M391.083 688.327c212.542 0 378.329-174.284 382.577-374.076 4.252-229.549-174.284-391.078-374.076-395.332-229.549-4.252-391.078 174.284-395.332 374.076-4.252 225.295 178.537 395.332 386.831 395.332zM344.322 624.562c0 0 0 4.252 0 0-8.501 4.252-12.754 0-21.255 0-17.002-4.252-38.257-8.501-55.259-17.002-38.257-17.002-72.267-38.257-102.023-68.013-34.008-29.756-55.259-68.013-76.514-106.27-4.252-8.501-4.252-8.501 4.252-12.754 21.255-4.252 38.257-4.252 59.512-8.501 17.002-4.252 25.504-17.002 17.002-34.008s-17.002-29.756-21.255-46.758c-4.252-21.255 0-38.257 12.754-51.012 8.501-8.501 17.002-12.754 25.504-17.002 8.501-8.501 21.255-17.002 17.002-29.756 0-8.501 0-21.255 4.252-29.756 4.252-12.754 8.501-25.504 8.501-38.257 0-17.002 8.501-34.008 21.255-46.758 12.754-17.002 25.504-34.008 42.511-42.511 8.501-8.501 17.002-4.252 17.002 8.501 0 8.501 0 17.002 0 29.756 0 17.002-4.252 29.756-4.252 46.758 0 21.255 8.501 42.511 12.754 63.763 4.252 17.002 12.754 29.756 25.504 42.511 12.754 8.501 21.255 12.754 34.008 21.255s25.504 12.754 29.756 29.756c8.501 17.002 12.754 38.257 8.501 55.259-4.252 8.501-4.252 21.255-12.754 25.504-17.002 25.504-42.511 34.008-72.267 38.257-12.754 4.252-25.504 4.252-34.008 8.501-21.255 4.252-42.511 8.501-63.763 4.252 0 0-4.252 0-4.252 0-8.501 4.252-12.754 8.501-21.255 12.754-8.501 12.754-12.754 21.255 0 34.008 4.252 4.252 4.252 8.501 8.501 8.501 12.754 12.754 29.756 29.756 42.511 42.511s21.255 25.504 38.257 34.008c17.002 8.501 29.756 21.255 46.758 34.008 4.252 0 8.501 4.252 12.754 8.501zM650.384 105.957c0 0 0 0 0 0 4.252 4.252 4.252 4.252 8.501 8.501 29.756 38.257 46.758 80.768 55.259 127.526 4.252 21.255 4.252 38.257 4.252 59.512 0 25.504 0 46.758-8.501 72.267-4.252 17.002-8.501 38.257-17.002 55.259-12.754 29.756-29.756 59.512-55.259 85.015-38.257 42.511-80.768 72.267-131.779 93.519-4.252 0-8.501 4.252-12.754 4.252s-12.754-21.255-12.754-25.504c0-8.501 4.252-17.002 4.252-25.504 4.252-17.002 17.002-21.255 34.008-21.255 8.501 4.252 17.002 4.252 25.504 8.501 4.252 4.252 12.754 4.252 17.002 0 8.501-4.252 8.501-17.002 8.501-25.504-4.252-4.252-8.501-12.754-12.754-17.002-8.501-8.501-17.002-17.002-25.504-25.504-8.501-12.754-17.002-25.504-17.002-42.511s8.501-34.008 17.002-51.012c12.754-21.255 34.008-38.257 59.512-38.257 17.002 0 29.756-8.501 38.257-21.255 12.754-21.255 17.002-42.511 17.002-68.013 0-21.255 0-46.758-4.252-68.013 0-12.754-4.252-25.504-8.501-34.008-4.252-12.754 0-38.257 17.002-51.012zM493.101 59.199c0 0 0 0 0 0-17.002 0-29.756-4.252-46.758-8.501-25.504-8.501-51.012-17.002-76.514-25.504-12.754-4.252-25.504-4.252-38.257-8.501-8.501 0-12.754-4.252-21.255-8.501-4.252-4.252-12.754-8.501-17.002-12.754 0 0-4.252-4.252 0-4.252 0 0 0-4.252 4.252-4.252 17.002-4.252 34.008-8.501 51.012-12.754 29.756-4.252 59.512-4.252 89.269 0 12.754 0 21.255 4.252 34.008 4.252 12.754 4.252 29.756 8.501 42.511 12.754 21.255 8.501 38.257 17.002 55.259 29.756 4.252 0 4.252 4.252 0 8.501-8.501 4.252-12.754 12.754-21.255 12.754-17.002 17.002-38.257 17.002-55.259 17.002z" />
<glyph unicode="&#xe90a;" glyph-name="checkmark3" horiz-adv-x="811" d="M786.017 397.221l-472.605-472.605c-9.949-9.949-19.9-9.949-29.849 0l-273.614 273.614c-9.949 9.949-9.949 19.9 0 29.849l99.495 99.495c9.949 9.949 19.9 9.949 29.849 0l149.244-149.244c9.949-9.949 19.9-9.949 29.849 0l348.236 348.236c9.949 9.949 19.9 9.949 29.849 0l99.495-99.495c-4.975-9.949-4.975-24.873-9.949-29.849z" />
<glyph unicode="&#xe90b;" glyph-name="x" horiz-adv-x="640" d="M622.521 34.191c0 0 0 0 0 0 4.979-4.979 4.979-4.979 4.979-4.979 0-4.979 0-4.979 0-9.961s-4.979-4.979-4.979-9.961l-89.644-89.644c-4.979-4.979-4.979-4.979-9.961-4.979s-4.979 0-9.961 0c0 0-4.979 0-4.979 0s0 0-4.979 4.979l-189.247 189.247-189.247-189.247c0 0 0-4.979-4.979-4.979 0 0 0 0-4.979 0s-4.979 0-9.961 0-4.979 4.979-9.961 4.979l-89.644 89.644c-4.979 4.979-4.979 4.979-4.979 9.961s0 4.979 0 9.961c0 0 0 4.979 0 4.979s0 0 4.979 4.979l189.247 189.247-189.247 189.247c0 0-4.979 0-4.979 4.979 0 0 0 0 0 4.979s0 4.979 0 9.961 4.979 4.979 4.979 9.961l89.644 89.644c4.979 4.979 4.979 4.979 9.961 4.979s4.979 0 9.961 0c0 0 4.979 0 4.979 0s0 0 4.979-4.979l189.247-189.247 189.247 189.247c0 0 0 4.979 4.979 4.979 0 0 0 0 4.979 0s4.979 0 9.961 0 4.979-4.979 9.961-4.979l89.644-89.644c4.979-4.979 4.979-4.979 4.979-9.961s0-4.979 0-9.961c0 0 0-4.979 0-4.979s0 0-4.979-4.979l-189.247-189.247 189.247-194.229z" />
<glyph unicode="&#xe90c;" glyph-name="add" horiz-adv-x="640" d="M616.875 297.726c4.975-4.975 4.975-9.949 4.975-14.924v-114.42c0-4.975 0-9.949-4.975-14.924s-9.949-4.975-14.924-4.975h-213.917v-213.917c0-4.975 0-9.949-4.975-14.924s-9.949-4.975-14.924-4.975h-114.42c-4.975 0-9.949 0-14.924 4.975s-4.975 9.949-4.975 14.924v213.917h-213.917c-4.975 0-9.949 0-14.924 4.975s-4.975 9.949-4.975 14.924v114.42c0 4.975 0 9.949 4.975 14.924s9.949 4.975 14.924 4.975h213.917v213.917c0 4.975 0 9.949 4.975 14.924s9.949 4.975 14.924 4.975h114.42c4.975 0 9.949 0 14.924-4.975s4.975-9.949 4.975-14.924v-213.917h213.917c4.975 0 9.949 0 14.924-4.975z" />
<glyph unicode="&#xe90d;" glyph-name="image" d="M959.884 832c0.040-0.034 0.082-0.076 0.116-0.116v-767.77c-0.034-0.040-0.076-0.082-0.116-0.116h-895.77c-0.040 0.034-0.082 0.076-0.114 0.116v767.772c0.034 0.040 0.076 0.082 0.114 0.114h895.77zM960 896h-896c-35.2 0-64-28.8-64-64v-768c0-35.2 28.8-64 64-64h896c35.2 0 64 28.8 64 64v768c0 35.2-28.8 64-64 64v0zM832 672c0-53.020-42.98-96-96-96s-96 42.98-96 96 42.98 96 96 96 96-42.98 96-96zM896 128h-768v128l224 384 256-320h64l224 192z" />
<glyph unicode="&#xe90e;" glyph-name="minus2" horiz-adv-x="576" d="M0 267.893c0 4.364 0 8.729 4.364 13.093s8.729 4.364 13.093 4.364h541.204c4.364 0 8.729 0 13.093-4.364s4.364-8.729 4.364-13.093v-109.113c0-4.364 0-8.729-4.364-13.093s-8.729-4.364-13.093-4.364h-541.204c-4.364 0-8.729 0-13.093 4.364s-4.364 8.729-4.364 13.093v109.113z" />
<glyph unicode="&#xe90f;" glyph-name="emoji" horiz-adv-x="889" d="M380.924-85.473c-208.6 0-380.924 172.325-380.924 380.924s172.325 380.924 380.924 380.924c86.162 0 172.325-31.745 240.346-86.162s113.37-126.973 131.508-213.135c4.535-13.606-4.535-31.745-22.676-31.745-13.606-4.535-31.745 4.535-31.745 22.676-18.141 72.557-54.416 136.043-113.37 181.393s-131.508 72.557-204.065 72.557c-181.393 0-326.508-145.113-326.508-326.508s145.113-326.508 326.508-326.508c90.697 0 176.86 36.279 240.346 104.302 9.070 9.070 27.211 13.606 40.812 0 9.070-9.070 13.606-27.211 0-40.812-77.092-72.557-176.86-117.903-281.157-117.903zM380.924 100.457c-86.162 0-163.254 49.881-199.53 126.973-4.535 13.606 0 31.745 13.606 36.279s31.745 0 36.279-13.606c27.211-58.951 86.162-95.233 149.649-95.233s122.438 36.279 149.649 95.233c4.535 13.606 22.676 18.141 36.279 13.606s18.141-22.676 13.606-36.279c-36.279-77.092-113.37-126.973-199.53-126.973zM294.762 413.356c0-17.533-14.213-31.745-31.745-31.745s-31.745 14.213-31.745 31.745c0 17.533 14.213 31.745 31.745 31.745s31.745-14.213 31.745-31.745zM263.021 372.543c-22.676 0-40.812 18.141-40.812 40.812s18.141 40.812 40.812 40.812 40.812-18.141 40.812-40.812-22.676-40.812-40.812-40.812zM263.021 436.030c-13.606 0-22.676-9.070-22.676-22.676s9.070-22.676 22.676-22.676 22.676 9.070 22.676 22.676c0 13.606-9.070 22.676-22.676 22.676zM530.572 413.356c0-17.533-14.213-31.745-31.745-31.745s-31.745 14.213-31.745 31.745c0 17.533 14.213 31.745 31.745 31.745s31.745-14.213 31.745-31.745zM498.832 372.543c-22.676 0-40.812 18.141-40.812 40.812s18.141 40.812 40.812 40.812c22.676 0 40.812-18.141 40.812-40.812s-22.676-40.812-40.812-40.812zM498.832 436.030c-13.606 0-22.676-9.070-22.676-22.676s9.070-22.676 22.676-22.676c13.606 0 22.676 9.070 22.676 22.676s-9.070 22.676-22.676 22.676zM848.010 204.754h-72.557v72.557c0 18.141-18.141 36.279-36.279 36.279s-36.279-18.141-36.279-36.279v-72.557h-72.557c-18.141 0-36.279-18.141-36.279-36.279s18.141-36.279 36.279-36.279h72.557v-72.557c0-18.141 18.141-36.279 36.279-36.279s36.279 18.141 36.279 36.279v72.557h72.557c18.141 0 36.279 18.141 36.279 36.279s-13.606 36.279-36.279 36.279z" />
<glyph unicode="&#xe910;" glyph-name="expand-link" horiz-adv-x="917" d="M338.027 513.168c0 0 0 0 0 0-23.583 0-39.306-19.652-39.306-39.306v-157.222h-113.985v117.916c0 3.931 0 3.931-3.931 7.861-3.931-3.931-3.931-3.931-7.861-7.861l-169.013-169.013c-3.931-3.931-3.931-3.931-3.931-7.861s0-3.931 3.931-7.861l165.083-165.083c3.931 0 7.861 0 7.861 0s3.931 3.931 3.931 7.861v117.916h117.916v-157.222c0-23.583 19.652-39.306 39.306-39.306 0 0 0 0 0 0 23.583 0 39.306 19.652 39.306 39.306v416.637c3.931 23.583-15.722 43.236-39.306 43.236zM904.025 269.475l-169.013 165.083c0 0-3.931 3.931-7.861 0-3.931 0-3.931-3.931-3.931-7.861v-117.916l-113.985 3.931v157.222c0 23.583-19.652 39.306-39.306 39.306 0 0 0 0 0 0-23.583 0-39.306-19.652-39.306-39.306v-416.637c0-23.583 19.652-39.306 39.306-39.306 0 0 0 0 0 0 23.583 0 39.306 19.652 39.306 39.306v157.222h117.916v-117.916c0-3.931 0-7.861 3.931-7.861 0 0 3.931 0 7.861 3.931l165.083 165.083c0 0 3.931 3.931 3.931 7.861 0 0-3.931 3.931-3.931 7.861z" />
<glyph unicode="&#xe911;" glyph-name="shorten-link" horiz-adv-x="853" d="M839.86 497.979c0 23.771-19.809 43.58-43.58 43.58 0 0 0 0 0 0-23.771 0-43.58-19.809-43.58-43.58v-182.245l-122.817 3.962v118.855c0 3.962 0 3.962-3.962 7.923-3.962 0-3.962 0-7.923 0l-166.397-166.397c-3.962-3.962-3.962-3.962-3.962-7.923s0-3.962 3.962-7.923l166.397-166.397c3.962-3.962 7.923-3.962 7.923-3.962s3.962 3.962 3.962 7.923v114.893h126.778v-178.283c0-23.771 19.809-43.58 43.58-43.58 0 0 0 0 0 0 23.771 0 43.58 19.809 43.58 43.58l-3.962 459.573zM225.775 442.513c0 0-3.962 3.962-7.923 0-3.962 0-3.962-3.962-3.962-7.923v-114.893l-122.817-3.962v182.245c0 27.733-19.809 47.542-43.58 47.542 0 0 0 0 0 0-27.733 0-47.542-19.809-47.542-47.542v-463.535c0-23.771 19.809-43.58 43.58-43.58 0 0 0 0 0 0 23.771 0 43.58 19.809 43.58 43.58v178.283h126.778v-114.893c0-3.962 0-7.923 3.962-7.923 0 0 3.962 0 7.923 3.962l166.397 166.397c0 0 3.962 3.962 3.962 7.923s0 3.962-3.962 7.923l-166.397 166.397z" />
<glyph unicode="&#xe912;" glyph-name="angry-circle" horiz-adv-x="768" d="M383.936 682.345c-211.166 0-383.936-172.77-383.936-383.936s172.77-383.936 383.936-383.936 383.936 172.77 383.936 383.936c0 211.166-172.77 383.936-383.936 383.936zM249.558 186.426c-3.199-15.999-22.397-22.397-41.595-19.198-19.198 6.397-31.993 19.198-28.794 38.396s-3.199 22.397-19.198 25.595-41.595 12.799-60.791 25.595c-9.596 6.397-15.999 15.999-9.596 25.595 6.397 12.799 15.999 9.596 25.595 3.199 51.191-28.794 111.983-38.396 169.571-41.595 9.596 0 19.198 0 31.993-3.199 12.799 0 22.397-6.397 22.397-19.198s-9.596-15.999-22.397-15.999c-9.596 0-19.198 3.199-25.595 3.199-22.397 6.397-35.194 6.397-41.595-22.397zM473.523 48.853c-28.794 0-60.791 0-89.587 0 0 0 0 0 0 0-31.993 0-60.791 0-92.785 0-9.596 0-22.397 3.199-25.595 19.198 0 15.999 12.799 15.999 22.397 19.198 63.991 12.799 124.778 12.799 188.769 0 12.799-3.199 28.794-6.397 28.794-19.198-3.199-19.198-19.198-19.198-31.993-19.198zM665.492 253.616c-15.999-9.596-35.194-15.999-54.389-22.397-15.999-3.199-25.595-9.596-22.397-28.794s-6.397-31.993-25.595-35.194c-19.198-3.199-38.396 3.199-41.595 19.198-6.397 31.993-25.595 25.595-47.992 22.397-15.999 0-41.595-12.799-44.793 15.999s25.595 19.198 44.793 19.198c60.791 6.397 118.381 6.397 172.77 41.595 9.596 6.397 25.595 9.596 31.993-6.397 6.397-12.799-3.199-19.198-12.799-25.595z" />
<glyph unicode="&#xe913;" glyph-name="haha-circle" horiz-adv-x="768" d="M383.936 682.345c-211.166 0-383.936-172.77-383.936-383.936s172.77-383.936 383.936-383.936 383.936 172.77 383.936 383.936-172.77 383.936-383.936 383.936zM505.515 439.186c31.993 15.999 60.79 28.794 92.785 44.793 9.597 3.199 19.198 6.397 25.595-6.397s-3.199-19.198-12.798-25.595c-19.198-9.597-38.395-19.198-63.991-31.993 25.595-12.798 44.793-22.397 63.991-31.993 9.597-6.397 19.198-12.798 12.798-22.397-6.397-12.798-15.999-12.798-28.794-6.397-31.993 15.999-63.991 28.794-92.785 44.793-15.999 9.597-15.999 22.397 3.199 35.193zM153.574 387.996c19.198 9.597 38.395 19.198 63.991 31.993-22.397 12.798-44.793 22.397-63.991 31.993-12.798 3.199-19.198 12.798-12.798 25.595s15.999 9.597 25.595 6.397c31.993-15.999 63.991-28.794 92.785-44.793 19.198-9.597 19.198-25.595 0-35.193-31.993-15.999-60.79-28.794-92.785-44.793-9.597-3.199-19.198-6.397-25.595 6.397-6.397 9.597 0 19.198 12.798 22.397zM275.154 58.449c-35.193 22.397-63.991 47.992-79.985 86.387 131.177 54.389 262.357 51.191 390.333 0-51.191-108.782-204.765-150.373-310.349-86.387zM627.095 221.623c-3.199-12.798-6.397-28.794-15.999-38.395-147.175 57.588-294.349 60.79-441.524 0-15.999 22.397-19.198 51.191-25.595 76.786-3.199 22.397 3.199 28.794 25.595 28.794 137.579 0 275.152 0 412.73 0 63.991-3.199 63.991-6.397 44.793-67.19z" />
<glyph unicode="&#xe914;" glyph-name="like-circle" horiz-adv-x="768" d="M383.936 682.345c-207.967 0-383.936-172.77-383.936-383.936s172.77-383.936 383.936-383.936c211.166 0 383.936 169.571 383.936 380.737 0 214.365-169.571 387.135-383.936 387.135zM284.753 266.416c0-9.597 0-19.198 0-31.993 0-28.794 0-54.389 0-83.185 0-19.198-6.397-25.595-25.595-25.595-102.381 0-83.185-12.798-83.185 76.786 0 38.395 0 73.587 0 111.983 0 22.397 6.397 28.794 28.794 28.794 92.785 0 76.786 12.798 79.985-76.786zM575.904 288.812c0-19.198-31.993-19.198-15.999-41.595 19.198-22.397-15.999-38.395-9.597-67.19 6.397-31.993-31.993-25.595-54.389-25.595-12.798 0-22.397 0-35.193 0s-22.397 0-35.193 0c-28.794 0-57.588 0-86.387 0-22.397 0-31.993 6.397-31.993 31.993 0 44.793 0 89.587 0 137.579 0 54.389 35.193 92.785 63.991 131.177 15.999 19.198 28.794 35.193 25.595 60.79-3.199 15.999 3.199 28.794 22.397 31.993 15.999 3.199 25.595-6.397 31.993-22.397 15.999-38.395 6.397-73.587-9.597-108.782-9.597-19.198-6.397-25.595 15.999-25.595 25.595 3.199 51.191 0 76.786 0 31.993 0 47.992-31.993 28.794-54.389-12.798-25.595 12.798-31.993 12.798-47.992z" />
<glyph unicode="&#xe915;" glyph-name="love-circle" horiz-adv-x="768" d="M384.464 686.604c-214.659 0-384.464-173.010-384.464-387.669 0-211.454 176.215-384.464 384.464-381.262 214.659 0 384.464 173.010 384.464 387.669 0 208.253-173.010 381.262-384.464 381.262zM599.123 318.157c-12.815-44.853-41.649-83.303-73.689-115.338-35.244-38.445-76.894-67.28-121.747-96.116-12.815-6.409-22.427-9.614-35.244 0-57.672 35.244-108.933 73.689-150.583 128.157-28.836 38.445-54.467 80.099-51.263 128.157 3.205 57.672 35.244 102.525 83.303 115.338 54.467 12.815 102.525-12.815 134.564-70.485 16.017 41.649 44.853 64.076 83.303 70.485 92.911 12.815 156.992-64.076 131.361-160.194z" />
<glyph unicode="&#xe916;" glyph-name="sad-circle" horiz-adv-x="811" d="M796.039 447.298c-83.225 276.301-412.787 376.168-639.158 193.077-199.738-163.119-189.751-486.025 23.303-632.497 126.499-86.552 269.646-93.211 409.46-36.619 0 3.331 0 3.331 0 6.656 6.656-6.656 13.317-13.317 19.972-16.646 9.986-6.656 23.303-6.656 33.289-6.656s19.972 3.331 29.958 6.656c36.619 19.972 39.948 49.936 33.289 99.866 99.866 109.855 133.157 243.013 89.88 386.158zM586.315 447.298c36.619 0 63.25-16.646 83.225-46.605 6.656-9.986 9.986-23.303-3.331-29.958-9.986-6.656-19.972 0-26.633 9.986-13.317 19.972-33.289 33.289-56.591 29.958-16.646 0-33.289-6.656-33.289 16.646 3.331 19.972 19.972 16.646 36.619 19.972zM160.211 370.734c-9.986 6.656-9.986 16.646-3.331 26.633 13.317 33.289 69.908 59.922 103.197 49.936 9.986-6.656 16.646-13.317 13.317-23.303-3.331-13.317-9.986-16.646-23.303-16.646-29.958 3.331-49.936-6.656-66.577-29.958-3.331-9.986-13.317-13.317-23.303-6.656zM240.105 247.563c-26.633 0-49.936 23.303-49.936 53.261s19.972 56.591 46.605 56.591c26.633 0 49.936-23.303 49.936-53.261 3.331-26.633-19.972-56.591-46.605-56.591zM513.076 91.102c-9.986-3.331-16.646-3.331-23.303 3.331-9.986 9.986-23.303 19.972-36.619 26.633-43.275 16.646-79.894 9.986-113.183-19.972-9.986-9.986-19.972-19.972-33.289-6.656s0 26.633 9.986 33.289c49.936 49.936 139.816 49.936 189.751 0 3.331 0 3.331-3.331 6.656-3.331 3.331-3.331 3.331-6.656 6.656-6.656 3.331-3.331 3.331-6.656 3.331-9.986 0-6.656-3.331-13.317-9.986-16.646zM536.379 300.826c0 29.958 23.303 56.591 49.936 56.591s49.936-23.303 49.936-53.261c0-29.958-23.303-56.591-49.936-56.591s-46.605 26.633-49.936 53.261zM662.878-22.080c-13.317-6.656-29.958-6.656-43.275 0s-23.303 19.972-23.303 36.619c-6.656 63.25 29.958 116.513 49.936 139.816 9.986-19.972 29.958-56.591 39.948-99.866 6.656-43.275 0-63.25-23.303-76.563z" />
<glyph unicode="&#xe917;" glyph-name="wow-circle" horiz-adv-x="789" d="M388.203 690.901c-224.579 0-388.203-186.081-384.992-391.41 3.21-211.748 182.87-384.992 381.787-378.577 205.331-6.415 391.41 163.624 388.203 388.203 0 211.748-170.039 381.787-384.992 381.787zM247.039 347.618c-12.831-16.041-25.667-28.873-48.124-25.667-19.252 3.21-32.083 19.252-38.498 35.293-9.626 32.083-6.415 60.956 9.626 89.833 12.831 19.252 25.667 35.293 51.335 32.083 22.457-3.21 32.083-22.457 38.498-41.709 3.21-9.626 3.21-19.252 3.21-22.457 3.21-32.083-3.21-51.335-16.041-67.376zM272.703 581.822c-6.415-6.415-12.831-9.626-22.457-6.415-25.667 12.831-48.124 9.626-70.581-9.626-6.415-9.626-16.041-9.626-22.457 0s-6.415 16.041 3.21 25.667c16.041 19.252 38.498 28.873 64.165 28.873v0c0 0 0 0 0 0 16.041 0 28.873-3.21 44.915-12.831 3.21-9.626 6.415-16.041 3.21-25.667zM461.994 42.832c-3.21-3.21-6.415-9.626-12.831-12.831-38.498-35.293-83.417-35.293-121.915 0-60.956 54.539-67.376 179.665-9.626 243.831 41.709 41.709 93.040 44.915 134.746 3.21 3.21-3.21 6.415-9.626 12.831-12.831 9.626-12.831 16.041-25.667 22.457-38.498 9.626-22.457 12.831-44.915 12.831-67.376-3.21-44.915-12.831-83.417-38.498-115.5zM612.782 350.824c-16.041-35.293-48.124-38.498-76.998-12.831-25.667 25.667-32.083 73.791-19.252 105.874 16.041 35.293 51.335 41.709 80.207 9.626 16.041-19.252 22.457-41.709 22.457-67.376 3.21-9.626 0-22.457-6.415-35.293zM619.197 565.781c-6.415-9.626-16.041-9.626-25.667 0-19.252 19.252-41.709 25.667-67.376 9.626-9.626-6.415-19.252-3.21-22.457 6.415-6.415 9.626 0 19.252 9.626 22.457 12.831 9.626 28.873 12.831 51.335 12.831 16.041 0 38.498-9.626 54.539-28.873 6.415-6.415 9.626-12.831 0-22.457z" />
<glyph unicode="&#xe918;" glyph-name="disconnected" horiz-adv-x="768" d="M694.215 273.076v0c0-51.202-41.601-92.8-89.599-92.8h-112.001v236.802h112.001c47.998 0 89.599-41.601 89.599-89.599v-3.199h73.599c-12.801 201.6-179.201 358.401-384.002 358.401s-371.201-156.801-384.002-358.401h73.599v3.199c0 47.998 41.601 89.599 89.599 89.599h112.001v-54.401h76.798v-38.402h-73.599v-54.401h76.798v-38.402h-76.798v-51.202h-115.2c-47.998 0-89.599 41.601-89.599 89.599v3.199h-73.599c12.801-201.6 179.201-358.401 384.002-358.401s371.201 159.999 384.002 358.401h-73.599z" />
<glyph unicode="&#xe919;" glyph-name="users" horiz-adv-x="853" d="M584.061 297.72c0 7.585 0 11.378 0 18.963 15.171-3.793 26.549-7.585 41.719-7.585 49.304 0 91.022 22.756 121.363 56.888 64.473-53.096 109.985-144.119 109.985-250.312 0 0-79.644-26.549-189.629-34.134-22.756 56.888-56.888 106.193-98.607 140.327 7.585 26.549 15.171 53.096 15.171 75.851zM288.238 229.452c-11.378 22.756-18.963 45.512-18.963 72.059 0 7.585 0 11.378 0 18.963-11.378-3.793-26.549-3.793-41.719-3.793-45.512-3.793-87.229 15.171-117.571 53.096-64.473-53.096-109.985-144.119-109.985-250.312 0 0 75.851-26.549 189.629-34.134 22.756 60.681 56.888 109.985 98.607 144.119zM656.121-51.199c0 106.193-45.512 197.215-109.985 250.312-26.549-34.134-68.266-56.888-117.571-56.888s-91.022 22.756-121.363 56.888c-64.473-53.096-109.985-144.119-109.985-250.312 0 0 94.815-34.134 227.556-34.134s231.349 34.134 231.349 34.134zM299.616 297.72c0-72.059 56.888-128.949 128.949-128.949s128.949 56.888 128.949 128.949-60.681 128.949-128.949 128.949-128.949-56.888-128.949-128.949zM625.78 593.542c-72.059 0-128.949-56.888-128.949-128.949 0-11.378 0-22.756 3.793-34.134 34.134-18.963 60.681-49.304 72.059-83.437 15.171-7.585 34.134-11.378 53.096-11.378 72.059 0 128.949 56.888 128.949 128.949s-60.681 128.949-128.949 128.949zM356.506 434.252c3.793 11.378 3.793 22.756 3.793 30.341 0 75.851-56.888 132.741-128.949 132.741-68.266 0-125.156-56.888-125.156-128.949s56.888-128.949 125.156-128.949c18.963 0 34.134 3.793 49.304 11.378 15.171 37.927 41.719 68.266 75.851 83.437z" />
<glyph unicode="&#xe91a;" glyph-name="Pinterest-01" d="M372.8 204.134c-2.267-11.067-4-20.4-6.267-29.6-8.133-33.067-15.867-66.133-24.667-98.933-9.467-35.2-24.133-68.267-44.133-98.933-12.8-19.733-28.267-37.333-46.667-52.133-1.867-1.467-4.133-2.533-7.067-4.133-1.333 6.933-2.8 12.667-3.467 18.4-4.267 42.133-4.267 84.4 0.267 126.4 2.133 20 5.6 40 9.733 59.733 7.067 34.133 14.4 68.133 22.667 101.867 7.2 29.333 15.867 58.267 23.467 87.333 4.267 16.267 7.6 32.667 11.067 49.067 0.4 1.6-0.933 3.733-1.867 5.6-18.267 37.867-19.733 76.8-9.333 117.067 6.267 24.133 15.867 46.267 33.067 64.533 27.733 29.467 65.733 34.133 99.6 12.267 14.267-9.2 21.867-23.333 23.867-39.867 2.933-25.333-2.133-49.867-9.467-74.133-7.867-25.867-16-51.733-22.933-77.867-5.067-18.933-9.333-38.133-12-57.467-5.733-43.467 14.667-71.467 60.133-77.867 54.8-7.733 92.267 18.533 121.867 60.933 19.067 27.467 31.2 58 39.333 90.133 12 47.467 14.667 95.733 6.267 144.133-5.467 31.2-15.6 61.067-36.8 85.6-25.6 29.6-57.6 49.2-95.2 60.133-31.733 9.333-64 10.4-96.133 5.067-45.067-7.467-85.6-25.867-121.333-54.533-27.867-22.4-50.4-49.333-66.4-81.333-16.4-33.2-23.067-68.4-22.533-105.6 0.4-31.867 13.467-58.267 29.333-84.267 16.267-26.533 10.8-52.4-3.067-77.733-1.067-1.867-5.333-3.333-7.6-2.8-48.133 12.267-82.933 40-99.6 88-13.867 40.133-15.733 81.2-11.467 123.2 2.933 29.467 10.4 57.333 22 84.267 16.667 38.667 41.2 71.733 72 100.267 29.6 27.467 63.2 48.8 100.267 64.133 30.667 12.667 62.4 21.733 95.733 23.333 19.067 0.933 38.267 3.067 57.333 2.267 42-1.867 83.067-8.667 122.8-23.467 49.067-18.267 91.333-45.733 124.8-86.267 21.2-25.733 35.867-54.933 45.467-86.933 11.467-38.4 12.133-77.6 10.667-116.933-1.733-48-12.8-93.733-32-137.867-17.333-39.867-40.933-74.8-73.333-103.867-25.333-22.8-54.267-39.467-86.933-48.267-37.467-10-76.133-13.467-113.333 0-18.533 6.667-35.067 18.933-52.267 29.067-8.133 5.333-16 11.333-25.867 18z" />
<glyph unicode="&#xe91b;" glyph-name="play" d="M981.188 799.892c-143.632 20.65-302.332 32.108-469.186 32.108-166.86 0-325.556-11.458-469.194-32.108-27.53-107.726-42.808-226.75-42.808-351.892 0-125.14 15.278-244.166 42.808-351.89 143.638-20.652 302.336-32.11 469.194-32.11 166.854 0 325.552 11.458 469.186 32.11 27.532 107.724 42.812 226.75 42.812 351.89 0 125.142-15.28 244.166-42.812 351.892zM384.002 256v384l320-192-320-192z" />
<glyph unicode="&#xe91c;" glyph-name="film" d="M0 832v-768h1024v768h-1024zM192 128h-128v128h128v-128zM192 384h-128v128h128v-128zM192 640h-128v128h128v-128zM768 128h-512v640h512v-640zM960 128h-128v128h128v-128zM960 384h-128v128h128v-128zM960 640h-128v128h128v-128zM384 640v-384l256 192z" />
<glyph unicode="&#xe956;" glyph-name="display" d="M0 896v-640h1024v640h-1024zM960 320h-896v512h896v-512zM672 192h-320l-32-128-64-64h512l-64 64z" />
<glyph unicode="&#xe958;" glyph-name="mobile" d="M736 960h-448c-52.8 0-96-43.2-96-96v-832c0-52.8 43.2-96 96-96h448c52.8 0 96 43.2 96 96v832c0 52.8-43.2 96-96 96zM384 912h256v-32h-256v32zM512 0c-35.346 0-64 28.654-64 64s28.654 64 64 64 64-28.654 64-64-28.654-64-64-64zM768 192h-512v640h512v-640z" />
<glyph unicode="&#xe959;" glyph-name="mobile2" d="M768 960h-576c-35.2 0-64-28.798-64-64v-896c0-35.2 28.798-64 64-64h576c35.2 0 64 28.8 64 64v896c0 35.202-28.8 64-64 64zM480-17.782c-27.492 0-49.782 22.29-49.782 49.782s22.29 49.782 49.782 49.782 49.782-22.29 49.782-49.782-22.29-49.782-49.782-49.782zM768 128h-576v704h576v-704z" />
<glyph unicode="&#xe994;" glyph-name="cog" d="M933.79 349.75c-53.726 93.054-21.416 212.304 72.152 266.488l-100.626 174.292c-28.75-16.854-62.176-26.518-97.846-26.518-107.536 0-194.708 87.746-194.708 195.99h-201.258c0.266-33.41-8.074-67.282-25.958-98.252-53.724-93.056-173.156-124.702-266.862-70.758l-100.624-174.292c28.97-16.472 54.050-40.588 71.886-71.478 53.638-92.908 21.512-211.92-71.708-266.224l100.626-174.292c28.65 16.696 61.916 26.254 97.4 26.254 107.196 0 194.144-87.192 194.7-194.958h201.254c-0.086 33.074 8.272 66.57 25.966 97.218 53.636 92.906 172.776 124.594 266.414 71.012l100.626 174.29c-28.78 16.466-53.692 40.498-71.434 71.228zM512 240.668c-114.508 0-207.336 92.824-207.336 207.334 0 114.508 92.826 207.334 207.336 207.334 114.508 0 207.332-92.826 207.332-207.334-0.002-114.51-92.824-207.334-207.332-207.334z" />
<glyph unicode="&#xe995;" glyph-name="cogs" d="M363.722 237.948l41.298 57.816-45.254 45.256-57.818-41.296c-10.722 5.994-22.204 10.774-34.266 14.192l-11.682 70.084h-64l-11.68-70.086c-12.062-3.418-23.544-8.198-34.266-14.192l-57.818 41.298-45.256-45.256 41.298-57.816c-5.994-10.72-10.774-22.206-14.192-34.266l-70.086-11.682v-64l70.086-11.682c3.418-12.060 8.198-23.544 14.192-34.266l-41.298-57.816 45.254-45.256 57.818 41.296c10.722-5.994 22.204-10.774 34.266-14.192l11.682-70.084h64l11.68 70.086c12.062 3.418 23.544 8.198 34.266 14.192l57.818-41.296 45.254 45.256-41.298 57.816c5.994 10.72 10.774 22.206 14.192 34.266l70.088 11.68v64l-70.086 11.682c-3.418 12.060-8.198 23.544-14.192 34.266zM224 96c-35.348 0-64 28.654-64 64s28.652 64 64 64 64-28.654 64-64-28.652-64-64-64zM1024 576v64l-67.382 12.25c-1.242 8.046-2.832 15.978-4.724 23.79l57.558 37.1-24.492 59.128-66.944-14.468c-4.214 6.91-8.726 13.62-13.492 20.13l39.006 56.342-45.256 45.254-56.342-39.006c-6.512 4.766-13.22 9.276-20.13 13.494l14.468 66.944-59.128 24.494-37.1-57.558c-7.812 1.892-15.744 3.482-23.79 4.724l-12.252 67.382h-64l-12.252-67.382c-8.046-1.242-15.976-2.832-23.79-4.724l-37.098 57.558-59.128-24.492 14.468-66.944c-6.91-4.216-13.62-8.728-20.13-13.494l-56.342 39.006-45.254-45.254 39.006-56.342c-4.766-6.51-9.278-13.22-13.494-20.13l-66.944 14.468-24.492-59.128 57.558-37.1c-1.892-7.812-3.482-15.742-4.724-23.79l-67.384-12.252v-64l67.382-12.25c1.242-8.046 2.832-15.978 4.724-23.79l-57.558-37.1 24.492-59.128 66.944 14.468c4.216-6.91 8.728-13.618 13.494-20.13l-39.006-56.342 45.254-45.256 56.342 39.006c6.51-4.766 13.22-9.276 20.13-13.492l-14.468-66.944 59.128-24.492 37.102 57.558c7.81-1.892 15.742-3.482 23.788-4.724l12.252-67.384h64l12.252 67.382c8.044 1.242 15.976 2.832 23.79 4.724l37.1-57.558 59.128 24.492-14.468 66.944c6.91 4.216 13.62 8.726 20.13 13.492l56.342-39.006 45.256 45.256-39.006 56.342c4.766 6.512 9.276 13.22 13.492 20.13l66.944-14.468 24.492 59.13-57.558 37.1c1.892 7.812 3.482 15.742 4.724 23.79l67.382 12.25zM672 468.8c-76.878 0-139.2 62.322-139.2 139.2s62.32 139.2 139.2 139.2 139.2-62.322 139.2-139.2c0-76.878-62.32-139.2-139.2-139.2z" />
</font>
</defs>
</svg>
